<svg width="24" height="24" viewBox="0 0 24 24" fill="none" xmlns="http://www.w3.org/2000/svg">
<mask id="path-1-inside-1" fill="white">
<path fill-rule="evenodd" clip-rule="evenodd" d="M24 0H0V24H24V0ZM21.1022 6.01742C21.6641 5.40869 21.6262 4.4597 21.0174 3.89779C20.4087 3.33589 19.4597 3.37385 18.8978 3.98258L7.98013 15.8101L5.08356 12.7842C4.5107 12.1857 3.56118 12.165 2.96275 12.7379C2.36431 13.3107 2.34358 14.2602 2.91644 14.8587L6.91644 19.0373C7.20266 19.3363 7.59972 19.5037 8.01361 19.4999C8.42751 19.4962 8.82146 19.3216 9.10221 19.0174L21.1022 6.01742Z"/>
</mask>
<path fill-rule="evenodd" clip-rule="evenodd" d="M24 0H0V24H24V0ZM21.1022 6.01742C21.6641 5.40869 21.6262 4.4597 21.0174 3.89779C20.4087 3.33589 19.4597 3.37385 18.8978 3.98258L7.98013 15.8101L5.08356 12.7842C4.5107 12.1857 3.56118 12.165 2.96275 12.7379C2.36431 13.3107 2.34358 14.2602 2.91644 14.8587L6.91644 19.0373C7.20266 19.3363 7.59972 19.5037 8.01361 19.4999C8.42751 19.4962 8.82146 19.3216 9.10221 19.0174L21.1022 6.01742Z" fill="black"/>
<path d="M0 0V-2H-2V0H0ZM24 0H26V-2H24V0ZM0 24H-2V26H0V24ZM24 24V26H26V24H24ZM21.0174 3.89779L19.6609 5.3674L19.6609 5.3674L21.0174 3.89779ZM21.1022 6.01742L22.5718 7.37398L22.5718 7.37398L21.1022 6.01742ZM18.8978 3.98258L20.3674 5.33914L20.3674 5.33914L18.8978 3.98258ZM7.98013 15.8101L6.53538 17.1931L8.00663 18.73L9.44974 17.1666L7.98013 15.8101ZM5.08356 12.7842L6.52831 11.4012L5.08356 12.7842ZM2.96275 12.7379L1.57974 11.2931L1.57974 11.2931L2.96275 12.7379ZM2.91644 14.8587L4.36119 13.4757H4.36119L2.91644 14.8587ZM6.91644 19.0373L5.47169 20.4203L5.47169 20.4203L6.91644 19.0373ZM8.01361 19.4999L8.03176 21.4999L8.01361 19.4999ZM9.10221 19.0174L10.5718 20.374L10.5718 20.374L9.10221 19.0174ZM0 2H24V-2H0V2ZM2 24V0H-2V24H2ZM24 22H0V26H24V22ZM22 0V24H26V0H22ZM19.6609 5.3674C19.4579 5.1801 19.4453 4.86377 19.6326 4.66086L22.5718 7.37398C23.8829 5.95361 23.7944 3.7393 22.374 2.42819L19.6609 5.3674ZM20.3674 5.33914C20.1801 5.54205 19.8638 5.5547 19.6609 5.3674L22.374 2.42819C20.9536 1.11707 18.7393 1.20565 17.4282 2.62602L20.3674 5.33914ZM9.44974 17.1666L20.3674 5.33914L17.4282 2.62602L6.51052 14.4535L9.44974 17.1666ZM3.63881 14.1672L6.53538 17.1931L9.42488 14.427L6.52831 11.4012L3.63881 14.1672ZM4.34575 14.1826C4.14627 14.3736 3.82977 14.3667 3.63881 14.1672L6.52831 11.4012C5.19163 10.0048 2.97609 9.95645 1.57974 11.2931L4.34575 14.1826ZM4.36119 13.4757C4.55214 13.6752 4.54523 13.9917 4.34575 14.1826L1.57974 11.2931C0.183396 12.6298 0.135018 14.8453 1.47169 16.2417L4.36119 13.4757ZM8.36119 17.6542L4.36119 13.4757L1.47169 16.2417L5.47169 20.4203L8.36119 17.6542ZM7.99547 17.5C8.13343 17.4988 8.26578 17.5546 8.36119 17.6542L5.47169 20.4203C6.13955 21.1179 7.066 21.5086 8.03176 21.4999L7.99547 17.5ZM7.6326 17.6609C7.72618 17.5595 7.8575 17.5013 7.99547 17.5L8.03176 21.4999C8.99752 21.4911 9.91673 21.0836 10.5718 20.374L7.6326 17.6609ZM19.6326 4.66086L7.6326 17.6609L10.5718 20.374L22.5718 7.37398L19.6326 4.66086Z" fill="black" mask="url(#path-1-inside-1)"/>
</svg>
