<svg width="53" height="49" viewBox="0 0 53 49" fill="none" xmlns="http://www.w3.org/2000/svg">
<path d="M18.7613 49C18.1193 49 17.4774 48.7906 16.8354 48.7906C13.6255 48.5812 10.4156 47.953 7.20576 46.6966C5.27984 45.859 3.35391 45.0214 2.06996 43.3462C1.42798 42.5086 1 41.4615 1 40.4145C1 38.5299 1 36.6453 1 34.7607C1 34.1325 1.21399 33.2949 1.64198 32.6667C3.5679 35.3889 6.34979 36.4359 9.34568 37.2735C13.8395 38.5299 18.3333 38.9487 22.8272 38.7393C26.251 38.5299 29.6749 38.1111 33.0988 37.0641C35.2387 36.4359 37.3786 35.3889 39.0905 33.9231C39.5185 33.5043 39.9465 33.0855 40.3745 32.4573C40.5885 33.0855 40.8025 33.7137 40.8025 34.3419C40.8025 36.4359 40.8025 38.5299 40.8025 40.6239C40.8025 41.8804 39.9465 42.9274 39.0905 43.765C37.8066 44.812 36.3086 45.6496 34.8107 46.2778C32.0288 47.5342 29.0329 48.1624 25.823 48.3718C24.9671 48.3718 23.8971 48.5812 23.0412 48.5812C21.7572 49 20.2593 49 18.7613 49Z" fill="black"/>
<path d="M1.64199 20.312C3.13993 22.6154 5.27985 23.6624 7.41977 24.5C10.4157 25.7565 13.6255 26.3847 16.8354 26.5941C19.1893 26.8035 21.5432 26.8035 23.8971 26.5941C28.177 26.3847 32.2428 25.5471 36.3087 23.6624C37.8066 22.8248 39.3046 21.9872 40.3745 20.312C40.8025 20.9402 41.0165 21.5684 41.0165 22.1966C41.0165 24.2906 41.0165 26.1753 41.0165 28.2693C41.0165 29.5257 40.1605 30.5727 39.3046 31.6197C37.5926 33.0855 35.6667 33.9231 33.5268 34.7607C30.5309 35.8077 27.321 36.2265 24.1111 36.4359C19.8313 36.6453 15.7654 36.4359 11.4856 35.5983C8.70372 34.9701 5.92183 34.1325 3.56792 32.4573C2.28397 31.6197 1.21401 30.5727 1.00001 28.8975C0.786023 26.5941 1.00001 24.2906 1.00001 21.7778C1.00001 21.359 1.428 20.9402 1.64199 20.312Z" fill="black"/>
<path d="M40.5885 8.58545C40.8025 9.21365 41.0165 9.84186 41.0165 10.2607C41.0165 12.3547 41.0165 14.2393 41.0165 16.3333C41.0165 17.7991 40.1605 18.8461 39.3045 19.6837C37.5926 21.1496 35.6667 22.1966 33.5268 22.8248C28.8189 24.2906 23.8971 24.7094 18.9753 24.5C15.5514 24.2906 12.1276 23.8718 8.7037 22.8248C6.56379 22.1966 4.63786 21.359 2.92593 19.8931C1.64198 18.8461 1 17.5897 1 15.9145C1 14.0299 1 12.1453 1 10.4701C1 9.84186 1.21399 9.21365 1.42798 8.58545C2.06996 10.4701 3.78189 11.3077 5.27984 11.9359C7.63375 12.9829 9.98765 13.6111 12.5556 13.8205C16.1934 14.4487 19.8313 14.6581 23.6831 14.4487C27.749 14.2393 31.8148 13.8205 35.6667 12.3547C36.5226 11.9359 37.3786 11.5171 38.2346 11.0983C39.3045 10.4701 40.1605 9.84186 40.5885 8.58545Z" fill="black"/>
<path d="M20.9013 0C25.1811 0 29.2469 0.418803 33.3128 1.46581C35.2387 1.88462 36.9506 2.51282 38.6626 3.76923C39.0906 4.18803 39.7325 4.60684 39.9465 5.23504C40.8025 6.28205 40.5885 7.32906 39.5185 8.37607C38.4486 9.42308 37.1646 9.84188 35.8807 10.4701C33.3128 11.5171 30.5309 11.9359 27.535 12.3547C24.9671 12.5641 22.1852 12.7735 19.4033 12.5641C14.9095 12.5641 10.4157 11.9359 6.34981 10.4701C4.85187 10.0513 3.56792 9.42308 2.49796 8.37607C1.428 7.32906 1.21401 6.28205 1.85598 5.23504C2.28397 4.60684 2.71195 4.18803 3.35393 3.76923C4.42389 2.93162 5.92183 2.30342 7.41977 1.88462C10.4157 1.04701 13.4115 0.418803 16.4074 0.209402C17.9054 0.209402 19.4033 0 20.9013 0Z" fill="black"/>
<path d="M31.3868 44.1837C30.5309 44.1837 29.8889 43.9743 29.2469 43.3461L23.6831 37.9017C23.0411 37.2735 22.8271 36.6452 22.8271 35.8076C22.8271 34.97 23.0411 34.3418 23.6831 33.7136C24.3251 33.0854 24.9671 32.876 25.823 32.876C26.679 32.876 27.321 33.0854 27.963 33.7136L31.3868 37.0641L47.2222 21.5683C47.8642 20.9401 48.5062 20.7307 49.3621 20.7307C50.2181 20.7307 50.8601 20.9401 51.502 21.5683C52.572 22.6153 52.572 24.4999 51.502 25.547L33.7407 42.9273C32.8848 43.9743 32.2428 44.1837 31.3868 44.1837Z" fill="black"/>
<path d="M49.3621 21.7778C50.0041 21.7778 50.4321 21.9872 50.8601 22.406C51.716 23.2436 51.716 24.5 50.8601 25.3377L33.0988 42.718C32.6708 43.1368 32.0288 43.3462 31.6008 43.3462C31.1728 43.3462 30.5309 43.1368 30.1029 42.718L24.5391 37.2735C23.6831 36.4359 23.6831 35.1795 24.5391 34.3419C24.9671 33.9231 25.609 33.7137 26.037 33.7137C26.465 33.7137 27.107 33.9231 27.535 34.3419L31.6008 38.3206L47.8642 22.406C48.0782 21.9872 48.7202 21.7778 49.3621 21.7778ZM49.3621 20.312C48.2922 20.312 47.4362 20.7308 46.7942 21.359L31.6008 36.2265L28.6049 33.2949C27.963 32.6667 26.893 32.2479 26.037 32.2479C25.1811 32.2479 24.1111 32.6667 23.4691 33.2949C22.8272 33.9231 22.3992 34.9701 22.3992 35.8077C22.3992 36.8547 22.8272 37.6924 23.4691 38.3206L28.8189 43.9744C29.4609 44.6026 30.5309 45.0214 31.3868 45.0214C32.2428 45.0214 33.3127 44.6026 33.9547 43.9744L51.716 26.5941C52.358 25.9659 52.786 24.9188 52.786 24.0812C52.786 23.2436 52.358 22.1966 51.716 21.5684C51.0741 20.9402 50.2181 20.312 49.3621 20.312Z" fill="#E7E7E7"/>
</svg>
