<svg width="37" height="46" viewBox="0 0 37 46" fill="none" xmlns="http://www.w3.org/2000/svg">
<path d="M35.615 30.6667C35.615 30.6667 35.4225 30.6667 35.615 30.6667C35.4225 30.6667 35.4225 30.6667 35.615 30.6667C35.4225 30.6667 35.4225 30.6667 35.615 30.6667C35.4225 30.8633 35.4225 31.0599 35.4225 31.4531H35.2299H35.0374C34.8449 31.6497 34.8449 31.6497 34.6524 31.8462V32.0428C34.4599 32.0428 34.4599 32.0428 34.2674 32.2394C33.8823 32.436 33.8823 33.0257 34.2674 33.2223C34.4599 33.4189 34.6524 33.4189 34.8449 33.4189H35.0374C34.6524 33.6155 34.6524 33.812 34.6524 34.0086V34.2052C34.6524 34.5984 35.0374 34.9915 35.4225 34.9915C35.8075 34.9915 36.1925 34.5984 36.1925 34.2052C36.1925 33.812 35.8075 33.4189 35.4225 33.4189H35.2299C35.4225 33.2223 35.4225 33.2223 35.4225 33.0257C35.8075 33.0257 36 32.6326 36 32.2394C35.8075 31.4531 35.615 31.0599 35.615 30.6667ZM32.9198 33.2223C32.7273 33.2223 32.7273 33.2223 32.5348 33.4189C32.1497 33.6155 32.1497 34.0086 32.3422 34.4018C32.5348 34.5984 32.7273 34.795 32.9198 34.795C33.1123 34.795 33.1123 34.795 33.3048 34.5984H33.4973C33.8823 34.4018 33.8824 34.0086 33.6898 33.6155C33.3048 33.4189 33.1123 33.2223 32.9198 33.2223ZM30.9946 34.2052H30.8021C30.4171 34.4018 30.2246 34.795 30.4171 35.1881C30.6096 35.3847 30.8021 35.5813 30.9946 35.5813H31.1872H31.3797C31.7647 35.3847 31.9572 34.9915 31.7647 34.5984C31.5722 34.4018 31.1872 34.2052 30.9946 34.2052ZM29.0695 34.9915H28.877C28.492 35.1881 28.2995 35.5813 28.492 35.9744C28.6845 36.3676 28.877 36.5642 29.262 36.5642H29.4545H29.6471C30.0321 36.3676 30.2246 35.9744 30.0321 35.5813C29.6471 35.1881 29.262 34.9915 29.0695 34.9915ZM26.9519 35.5813C26.7594 35.5813 26.7594 35.5813 26.7594 35.5813C26.3743 35.5813 26.1818 36.171 26.1818 36.5642C26.1818 36.9573 26.5668 37.1539 26.9519 37.1539H27.1444H27.3369C27.7219 37.1539 27.9144 36.5642 27.9144 36.171C27.7219 35.7779 27.3369 35.5813 26.9519 35.5813ZM25.0267 35.9744C25.0267 35.9744 24.8342 35.9744 25.0267 35.9744C24.8342 35.9744 24.8342 35.9744 25.0267 35.9744C24.8342 35.9744 24.8342 35.9744 25.0267 35.9744C24.8342 35.9744 24.8342 35.9744 25.0267 35.9744C24.8342 35.9744 24.8342 35.9744 25.0267 35.9744C24.8342 35.9744 24.8342 35.9744 25.0267 35.9744C24.8342 35.9744 24.8342 35.9744 24.8342 35.9744C24.4492 35.9744 24.2567 36.3676 24.2567 36.7608C24.2567 37.1539 24.6417 37.3505 25.0267 37.3505C25.0267 37.3505 25.0267 37.3505 25.2192 37.3505H25.4118C25.7968 37.3505 25.9893 36.9573 25.9893 36.5642C25.6043 36.3676 25.4118 35.9744 25.0267 35.9744ZM22.9091 36.3676C22.7166 36.3676 22.7166 36.3676 22.9091 36.3676C22.3315 36.3676 21.9465 36.7608 22.139 37.1539C22.139 37.5471 22.5241 37.7437 22.9091 37.7437H23.1016C23.4866 37.7437 23.8717 37.3505 23.6791 36.9573C23.6791 36.5642 23.2941 36.3676 22.9091 36.3676ZM20.984 36.5642C20.7914 36.5642 20.7914 36.5642 20.984 36.5642C20.7914 36.5642 20.7914 36.5642 20.984 36.5642C20.4064 36.5642 20.2139 36.9573 20.2139 37.3505C20.2139 37.7437 20.5989 38.1368 20.984 38.1368H21.1765C21.5615 38.1368 21.9465 37.7437 21.754 37.3505C21.5615 36.7608 21.1765 36.5642 20.984 36.5642ZM18.8663 36.5642C18.8663 36.5642 18.6738 36.5642 18.8663 36.5642C18.2888 36.5642 18.0963 36.9573 18.0963 37.3505C18.0963 37.7437 18.4813 38.1368 18.8663 38.1368H19.0588C19.4438 38.1368 19.8289 37.7437 19.8289 37.3505C19.6364 36.9573 19.2513 36.5642 18.8663 36.5642ZM16.7487 36.5642C16.3636 36.5642 15.9786 36.9573 15.9786 37.3505C15.9786 37.7437 16.3636 38.1368 16.7487 38.1368H16.9412C17.3262 38.1368 17.7112 37.7437 17.7112 37.3505C17.5187 36.9573 17.1337 36.5642 16.7487 36.5642ZM14.631 36.5642C14.246 36.5642 13.861 36.7608 13.861 37.1539C13.861 37.5471 14.0535 37.9402 14.4385 37.9402H14.631C15.016 37.9402 15.4011 37.7437 15.4011 37.3505C15.4011 36.9573 15.2086 36.5642 14.631 36.5642C14.8235 36.5642 14.8235 36.5642 14.631 36.5642ZM12.5134 36.3676C12.1283 36.3676 11.9358 36.5642 11.7433 36.9573C11.7433 37.3505 11.9358 37.7437 12.3209 37.7437H12.5134C12.8984 37.7437 13.0909 37.5471 13.2834 37.1539C13.2834 36.7608 13.0909 36.3676 12.7059 36.3676C12.7059 36.3676 12.7059 36.3676 12.5134 36.3676C12.7059 36.3676 12.7059 36.3676 12.5134 36.3676C12.7059 36.3676 12.7059 36.3676 12.5134 36.3676C12.7059 36.3676 12.7059 36.3676 12.5134 36.3676C12.7059 36.3676 12.7059 36.3676 12.5134 36.3676ZM10.3957 35.9744C10.0107 35.9744 9.81818 36.171 9.62567 36.5642C9.62567 36.9573 10.0107 37.3505 10.3957 37.3505H10.5882C10.5882 37.3505 10.5882 37.3505 10.7807 37.3505C11.1658 37.3505 11.3583 37.1539 11.5508 36.7608C11.5508 36.3676 11.3583 35.9744 10.9733 35.9744C10.7807 35.9744 10.5882 35.9744 10.3957 35.9744C10.5882 35.9744 10.5882 35.9744 10.3957 35.9744C10.5882 35.9744 10.5882 35.9744 10.3957 35.9744ZM8.47059 35.3847C8.08556 35.3847 7.89305 35.5813 7.70053 35.9744C7.50802 36.3676 7.89305 36.7608 8.27807 36.9573H8.47059H8.6631C9.04813 36.9573 9.24064 36.7608 9.43315 36.3676C9.62567 35.9744 9.24064 35.5813 8.85561 35.3847C8.6631 35.5813 8.6631 35.3847 8.47059 35.3847C8.6631 35.3847 8.47059 35.3847 8.47059 35.3847ZM6.54545 34.795C6.16043 34.795 5.96791 34.9915 5.7754 35.3847C5.58289 35.7779 5.7754 36.171 6.16043 36.3676H6.35294H6.54545C6.93048 36.3676 7.12299 36.171 7.31551 35.7779C7.50802 35.3847 7.31551 34.9915 6.93048 34.795C6.54545 34.795 6.54545 34.795 6.54545 34.795ZM4.42781 34.0086C4.23529 34.0086 3.85027 34.2052 3.85027 34.4018C3.65775 34.795 3.85027 35.3847 4.23529 35.3847H4.42781C4.42781 35.3847 4.62032 35.3847 4.81283 35.3847C5.00535 35.3847 5.39037 35.1881 5.39037 34.9915C5.58289 34.5984 5.39037 34.2052 5.00535 34.0086C4.62032 34.0086 4.62032 34.0086 4.42781 34.0086ZM2.69519 33.0257C2.50267 33.0257 2.31016 33.2223 2.11765 33.4189C1.92513 33.812 1.92513 34.2052 2.31016 34.4018H2.50267C2.69519 34.4018 2.69519 34.5984 2.8877 34.5984C3.08021 34.5984 3.27273 34.4018 3.46524 34.2052C3.65775 33.812 3.65775 33.4189 3.27273 33.2223C2.8877 33.0257 2.69519 33.0257 2.69519 33.0257ZM0.57754 30.8633C0.385027 30.8633 0.385027 31.0599 0.192513 31.2565C0.192513 31.4531 0.192513 31.6497 0.192513 31.8462C0 32.0428 0 32.2394 0.192513 32.436C0.192513 32.8291 0 33.0257 0 33.2223C0 33.6155 0.385027 34.0086 0.770053 34.0086C1.15508 34.0086 1.54011 33.6155 1.54011 33.2223V33.0257V32.8291C1.54011 32.8291 1.54011 32.8291 1.73262 32.8291C1.92513 32.6326 1.92513 32.0428 1.73262 31.8462C1.15508 31.6497 0.962567 31.2565 0.57754 30.8633ZM0.770053 34.5984C0.385027 34.5984 0 34.9915 0 35.3847C0 35.7779 0.385027 36.171 0.770053 36.171C1.15508 36.171 1.54011 35.7779 1.54011 35.3847V35.1881C1.54011 34.795 1.15508 34.5984 0.770053 34.5984ZM0.770053 36.5642C0.385027 36.5642 0 36.9573 0 37.3505C0 37.3505 0 37.3505 0 37.5471C0 37.9403 0.385027 38.3334 0.770053 38.3334C1.15508 38.3334 1.54011 37.9403 1.54011 37.5471V37.3505C1.54011 36.9573 1.15508 36.5642 0.770053 36.5642ZM0.962567 38.3334H0.770053C0.385027 38.53 0.192513 38.9232 0.385027 39.3163V39.5129C0.57754 39.7095 0.770053 39.9061 0.962567 39.9061H1.15508C1.54011 39.7095 1.73262 39.3163 1.54011 38.9232C1.54011 38.53 1.15508 38.3334 0.962567 38.3334ZM1.92513 39.9061C1.73262 39.9061 1.54011 39.9061 1.34759 40.1026C1.15508 40.2992 0.962567 40.889 1.34759 41.0855C1.54011 41.2821 1.73262 41.4787 1.92513 41.4787C2.11765 41.4787 2.31016 41.4787 2.50267 41.2821C2.69519 41.0855 2.8877 40.4958 2.50267 40.2992C2.31016 39.9061 2.11765 39.9061 1.92513 39.9061ZM3.27273 41.0855C3.08021 41.0855 2.8877 41.2821 2.69519 41.4787C2.50267 41.8719 2.50267 42.265 2.8877 42.4616C3.08021 42.4616 3.08021 42.6582 3.27273 42.6582C3.46524 42.6582 3.65775 42.4616 3.85027 42.265C4.23529 41.8719 4.04278 41.4787 3.85027 41.2821C3.65775 41.0855 3.46524 41.0855 3.27273 41.0855ZM5.00535 42.0685C4.81283 42.0685 4.42781 42.265 4.42781 42.4616C4.23529 42.8548 4.42781 43.2479 4.81283 43.4445C5.00535 43.4445 5.00535 43.4445 5.19786 43.4445C5.39037 43.4445 5.7754 43.2479 5.7754 43.0514C5.96791 42.6582 5.7754 42.265 5.39037 42.0685C5.19786 42.0685 5.00535 42.0685 5.00535 42.0685ZM6.73797 42.8548C6.35294 42.8548 6.16043 43.0514 5.96791 43.4445C5.7754 43.8377 5.96791 44.2308 6.35294 44.4274H6.54545C6.93048 44.4274 7.12299 44.2308 7.31551 43.8377C7.50802 43.4445 7.31551 43.0514 6.93048 42.8548C6.93048 42.8548 6.93048 42.8548 6.73797 42.8548ZM8.6631 43.4445C8.27807 43.4445 8.08556 43.6411 7.89305 44.0343C7.70053 44.4274 8.08556 44.8206 8.47059 45.0172C8.47059 45.0172 8.47059 45.0172 8.6631 45.0172H8.85561C9.24064 45.0172 9.43315 44.8206 9.62567 44.4274C9.81818 44.0343 9.43315 43.6411 9.04813 43.4445H8.6631C8.85561 43.4445 8.85561 43.4445 8.6631 43.4445ZM10.5882 43.8377C10.2032 43.8377 10.0107 44.0343 9.81818 44.4274C9.81818 44.8206 10.0107 45.2138 10.3957 45.2138C10.3957 45.2138 10.3957 45.2138 10.5882 45.2138C10.5882 45.2138 10.5882 45.2138 10.7807 45.2138C11.1658 45.2138 11.3583 45.0172 11.5508 44.624C11.5508 44.2308 11.3583 43.8377 10.9733 43.8377H10.5882C10.7807 43.8377 10.5882 43.8377 10.5882 43.8377ZM12.5134 44.2308C12.1283 44.2308 11.9358 44.4274 11.7433 44.8206C11.7433 45.2138 11.9358 45.6069 12.3209 45.6069C12.7059 45.6069 12.8984 45.4103 13.0909 45.0172C13.0909 44.624 12.8984 44.2308 12.5134 44.2308C12.7059 44.2308 12.7059 44.2308 12.5134 44.2308ZM14.631 44.4274C14.246 44.4274 13.861 44.624 13.861 45.0172C13.861 45.4103 14.0535 45.8035 14.4385 45.8035C15.016 45.8035 15.4011 45.6069 15.4011 45.2138C15.4011 44.8206 15.2086 44.4274 14.631 44.4274ZM16.5561 44.4274C15.9786 44.4274 15.7861 44.8206 15.7861 45.2138C15.7861 45.6069 16.1711 46.0001 16.5561 46.0001C16.5561 46.0001 16.5561 46.0001 16.7487 46.0001C17.1337 46.0001 17.3262 45.6069 17.3262 45.2138C17.3262 44.8206 17.1337 44.4274 16.5561 44.4274ZM18.6738 44.4274C18.0963 44.4274 17.9037 44.8206 17.9037 45.2138C17.9037 45.6069 18.2888 46.0001 18.6738 46.0001C18.6738 46.0001 18.6738 46.0001 18.8663 46.0001C19.2513 46.0001 19.6364 45.6069 19.6364 45.2138C19.6364 44.8206 19.0588 44.4274 18.6738 44.4274ZM20.5989 44.4274C20.0214 44.4274 19.8289 44.8206 19.8289 45.2138C19.8289 45.6069 20.2139 45.8035 20.5989 45.8035C20.984 45.8035 21.369 45.4103 21.1765 45.0172C21.369 44.8206 20.984 44.4274 20.5989 44.4274ZM22.7166 44.2308C22.7166 44.2308 22.5241 44.2308 22.7166 44.2308C22.139 44.2308 21.9465 44.624 21.9465 45.0172C21.9465 45.4103 22.3315 45.6069 22.7166 45.6069C23.1016 45.6069 23.4866 45.2138 23.2941 44.8206C23.2941 44.4274 23.1016 44.2308 22.7166 44.2308ZM24.6417 44.0343C24.6417 44.0343 24.4492 44.0343 24.6417 44.0343H24.4492C24.0642 44.0343 23.8717 44.4274 23.8717 44.8206C23.8717 45.2138 24.2567 45.4103 24.6417 45.4103C24.6417 45.4103 24.6417 45.4103 24.8342 45.4103C25.2192 45.4103 25.4118 45.0172 25.4118 44.624C25.2192 44.2308 25.0267 44.0343 24.6417 44.0343ZM26.5668 43.6411C26.5668 43.6411 26.3743 43.6411 26.5668 43.6411H26.3743C25.9893 43.6411 25.7968 44.0343 25.7968 44.624C25.7968 45.0172 26.1818 45.2138 26.5668 45.2138H26.7594C27.1444 45.2138 27.3369 44.8206 27.3369 44.2308C27.1444 43.8377 26.9519 43.6411 26.5668 43.6411ZM28.492 43.0514H28.2995C27.9144 43.2479 27.7219 43.6411 27.9144 44.0343C28.1069 44.4274 28.2995 44.624 28.6845 44.624H28.877C28.877 44.624 28.877 44.624 29.0695 44.624C29.4545 44.4274 29.6471 44.0343 29.4545 43.6411C29.0695 43.2479 28.6845 43.0514 28.492 43.0514ZM30.2246 42.265H30.0321C29.6471 42.4616 29.4545 42.8548 29.6471 43.2479C29.8396 43.4445 30.0321 43.6411 30.2246 43.6411H30.4171C30.8021 43.4445 30.9946 43.0514 30.8021 42.6582C30.8021 42.4616 30.6096 42.265 30.2246 42.265ZM32.1497 41.4787C31.9572 41.4787 31.9572 41.4787 31.7647 41.4787C31.3797 41.6753 31.3797 42.0685 31.5722 42.4616C31.7647 42.6582 31.9572 42.8548 32.1497 42.8548C32.3422 42.8548 32.3422 42.8548 32.5348 42.8548C32.9198 42.6582 32.9198 42.265 32.7273 41.8719C32.5348 41.6753 32.3422 41.4787 32.1497 41.4787ZM33.6898 40.2992C33.4973 40.2992 33.3048 40.2992 33.3048 40.4958C32.9198 40.6924 32.9198 41.2821 33.3048 41.4787C33.4973 41.6753 33.6898 41.6753 33.8824 41.6753C34.0749 41.6753 34.2674 41.6753 34.2674 41.4787C34.6524 41.2821 34.6524 40.6924 34.2674 40.4958C34.0749 40.4958 33.8824 40.2992 33.6898 40.2992ZM34.8449 38.9232C34.6524 38.9232 34.4599 39.1197 34.2674 39.3163C34.0749 39.7095 34.0749 40.1026 34.4599 40.2992C34.6524 40.2992 34.6524 40.4958 34.8449 40.4958C35.0374 40.4958 35.2299 40.2992 35.4225 40.1026C35.4225 40.1026 35.4225 40.1026 35.4225 39.9061C35.615 39.5129 35.615 39.1197 35.2299 38.9232C35.0374 39.1197 35.0374 38.9232 34.8449 38.9232ZM35.2299 37.3505C34.8449 37.3505 34.4599 37.7437 34.4599 38.1368V38.3334C34.4599 38.7266 34.8449 39.1197 35.2299 39.1197C35.615 39.1197 36 38.7266 36 38.3334C36 37.7437 35.615 37.3505 35.2299 37.3505ZM35.2299 35.3847C34.8449 35.3847 34.4599 35.7779 34.4599 36.171V36.3676C34.4599 36.7608 34.8449 37.1539 35.2299 37.1539C35.615 37.1539 36 36.7608 36 36.3676C36 36.3676 36 36.3676 36 36.171C36 35.5813 35.615 35.3847 35.2299 35.3847Z" fill="black"/>
<path d="M0.57754 19.0684C0.385027 19.0684 0.385027 19.0684 0.57754 19.0684C0.385027 19.0684 0.385027 19.0684 0.57754 19.0684C0.385027 19.0684 0.385027 19.0684 0.57754 19.0684C0.385027 19.0684 0.385027 19.0684 0.57754 19.0684C0.385027 19.0684 0.385027 19.0684 0.57754 19.0684C0.385027 19.0684 0.385027 19.0684 0.57754 19.0684C0.385027 19.0684 0.385027 19.0684 0.57754 19.0684C0.385027 19.0684 0.385027 19.0684 0.57754 19.0684C0.385027 19.0684 0.385027 19.0684 0.57754 19.0684C0.385027 19.0684 0.385027 19.0684 0.57754 19.0684C0.385027 19.0684 0.385027 19.0684 0.57754 19.0684C0.385027 19.2649 0.385027 19.2649 0.57754 19.0684C0.385027 19.4615 0.57754 19.8547 0.770053 20.0513C0.57754 20.0513 0.57754 20.0513 0.385027 20.2478C0.192513 20.4444 0.192513 20.641 0.192513 20.8376C0.192513 20.8376 0.192513 21.0342 0.192513 21.2308C0.192513 21.2308 0.192513 21.2308 0.192513 21.4273C0.192513 21.8205 0.57754 22.2137 0.962567 22.2137C1.34759 22.2137 1.73262 21.8205 1.73262 21.4273C1.92513 21.2308 1.92513 20.641 1.73262 20.4444C0.962567 19.8547 0.770053 19.4615 0.57754 19.0684ZM0.770053 22.4102C0.385027 22.4102 0 22.8034 0 23.1966C0 23.1966 0 23.1966 0 23.3931C0 23.7863 0.385027 24.1795 0.770053 24.1795C1.15508 24.1795 1.54011 23.7863 1.54011 23.3931V23.1966C1.54011 22.8034 1.15508 22.4102 0.770053 22.4102ZM0.770053 24.5726C0.385027 24.5726 0 24.9658 0 25.359C0 25.7521 0.385027 26.1453 0.770053 26.1453C1.15508 26.1453 1.54011 25.7521 1.54011 25.359V25.1624C1.54011 24.7692 1.15508 24.5726 0.770053 24.5726ZM0.770053 26.5384C0.385027 26.5384 0 26.9316 0 27.3248C0 27.7179 0.385027 27.9145 0.770053 27.9145C0.770053 27.9145 0.770053 27.9145 0.962567 27.9145C1.34759 27.9145 1.54011 27.5213 1.54011 27.1282C1.54011 26.735 1.15508 26.5384 0.770053 26.5384ZM1.54011 27.9145C1.34759 27.9145 1.15508 27.9145 1.15508 28.1111C0.770053 28.3077 0.770053 28.8974 1.15508 29.094C1.15508 29.4872 1.34759 29.4872 1.54011 29.4872C1.73262 29.4872 1.92513 29.4872 1.92513 29.2906C2.31016 29.094 2.31016 28.5043 1.92513 28.3077C1.92513 28.1111 1.73262 27.9145 1.54011 27.9145ZM2.8877 29.2906C2.69519 29.2906 2.50267 29.4872 2.31016 29.6837C2.11765 30.0769 2.11765 30.4701 2.50267 30.6666C2.69519 30.6666 2.69519 30.8632 2.8877 30.8632C3.08021 30.8632 3.27273 30.6666 3.46524 30.4701C3.65775 30.0769 3.65775 29.6837 3.27273 29.4872C3.08021 29.2906 3.08021 29.2906 2.8877 29.2906ZM4.42781 30.2735C4.23529 30.2735 3.85027 30.4701 3.85027 30.6666C3.65775 31.0598 3.85027 31.453 4.23529 31.6496C4.42781 31.6496 4.42781 31.6496 4.62032 31.6496C4.81283 31.6496 5.19786 31.453 5.19786 31.2564C5.39037 30.8632 5.19786 30.4701 4.81283 30.2735C4.81283 30.2735 4.62032 30.2735 4.42781 30.2735ZM6.35294 31.0598C5.96791 31.0598 5.7754 31.2564 5.58289 31.453C5.39037 31.8461 5.58289 32.2393 5.96791 32.4359H6.16043C6.54545 32.4359 6.73797 32.2393 6.93048 32.0427C7.12299 31.6496 6.93048 31.2564 6.54545 31.0598H6.35294ZM8.08556 31.6496C7.70053 31.6496 7.50802 31.8461 7.31551 32.2393C7.12299 32.6325 7.50802 33.0256 7.89305 33.2222H8.08556C8.47059 33.2222 8.6631 33.0256 8.85561 32.6325C9.04813 32.2393 8.6631 31.8461 8.27807 31.6496H8.08556C8.27807 31.6496 8.27807 31.6496 8.08556 31.6496ZM10.0107 32.0427C9.62567 32.0427 9.43315 32.2393 9.24064 32.6325C9.24064 33.0256 9.43315 33.4188 9.81818 33.4188H10.0107C10.3957 33.4188 10.5882 33.2222 10.7807 32.829C10.7807 32.4359 10.5882 32.0427 10.2032 32.0427H10.0107C10.2032 32.2393 10.2032 32.0427 10.0107 32.0427ZM12.1283 32.4359C11.7433 32.4359 11.5508 32.6325 11.3583 33.0256C11.3583 33.4188 11.5508 33.8119 11.9358 33.8119C11.9358 33.8119 11.9358 33.8119 12.1283 33.8119C12.1283 33.8119 12.1283 33.8119 12.3209 33.8119C12.7059 33.8119 12.8984 33.6154 13.0909 33.2222C13.0909 32.829 12.8984 32.4359 12.5134 32.4359H12.1283ZM14.0535 32.829C13.6684 32.829 13.2834 33.0256 13.2834 33.4188C13.2834 33.8119 13.4759 34.2051 13.861 34.2051C14.246 34.2051 14.631 34.0085 14.631 33.6154C14.8235 33.2222 14.631 32.829 14.0535 32.829ZM15.9786 32.829C15.5936 32.829 15.2086 33.2222 15.2086 33.6154C15.2086 34.0085 15.4011 34.4017 15.9786 34.4017C15.9786 34.4017 15.9786 34.4017 16.1711 34.4017C16.5561 34.4017 16.9412 34.0085 16.9412 33.6154C16.7487 33.2222 16.5561 33.0256 15.9786 32.829ZM18.0963 33.0256C17.5187 33.0256 17.3262 33.4188 17.3262 33.8119C17.3262 34.2051 17.7112 34.5983 18.0963 34.5983C18.4813 34.5983 18.8663 34.2051 18.8663 33.8119C18.8663 33.2222 18.4813 33.0256 18.0963 33.0256ZM20.0214 32.829C19.4438 32.829 19.2513 33.2222 19.2513 33.6154C19.2513 34.0085 19.6364 34.4017 20.0214 34.4017C20.4064 34.4017 20.7914 34.0085 20.7914 33.6154C20.7914 33.2222 20.4064 32.829 20.0214 32.829ZM22.139 32.829C22.139 32.829 21.9465 32.829 22.139 32.829C21.5615 32.829 21.369 33.2222 21.369 33.6154C21.369 34.0085 21.754 34.2051 22.139 34.2051C22.139 34.2051 22.139 34.2051 22.3315 34.2051C22.7166 34.2051 23.1016 33.8119 22.9091 33.4188C22.7166 33.0256 22.5241 32.829 22.139 32.829ZM24.0642 32.4359H23.8717C23.4866 32.4359 23.2941 32.829 23.2941 33.2222C23.2941 33.6154 23.6791 33.8119 24.0642 33.8119C24.0642 33.8119 24.0642 33.8119 24.2567 33.8119C24.6417 33.8119 24.8342 33.4188 24.8342 33.0256C24.6417 32.829 24.4492 32.4359 24.0642 32.4359ZM25.9893 32.0427H25.7968C25.4118 32.0427 25.2192 32.4359 25.2192 32.829C25.2192 33.2222 25.6043 33.4188 25.9893 33.4188H26.1818C26.5668 33.4188 26.7594 33.0256 26.7594 32.6325C26.5668 32.4359 26.3743 32.0427 25.9893 32.0427ZM27.9144 31.6496H27.7219H27.5294C27.1444 31.8461 26.9519 32.2393 26.9519 32.6325C26.9519 33.0256 27.3369 33.2222 27.7219 33.2222H27.9144C28.2995 33.0256 28.492 32.6325 28.492 32.2393C28.492 31.8461 28.2995 31.6496 27.9144 31.6496ZM29.8396 31.0598H29.6471C29.262 31.2564 29.0695 31.6496 29.262 32.0427C29.4545 32.4359 29.6471 32.4359 30.0321 32.4359H30.2246C30.6096 32.2393 30.8021 31.8461 30.6096 31.453C30.4171 31.2564 30.0321 31.0598 29.8396 31.0598ZM31.5722 30.2735C31.3797 30.2735 31.3797 30.2735 31.1872 30.2735C30.8021 30.4701 30.6096 30.8632 30.8021 31.2564C30.9946 31.453 31.1872 31.6496 31.3797 31.6496C31.5722 31.6496 31.5722 31.6496 31.7647 31.6496C32.1497 31.453 32.3422 31.0598 32.1497 30.6666C32.1497 30.2735 31.7647 30.2735 31.5722 30.2735ZM33.1123 29.094C32.9198 29.094 32.7273 29.094 32.7273 29.2906C32.3422 29.4872 32.3422 30.0769 32.5348 30.2735C32.7273 30.4701 32.9198 30.6666 33.1123 30.6666C33.3048 30.6666 33.4973 30.6666 33.4973 30.4701C33.8823 30.2735 33.8824 29.6837 33.6898 29.4872C33.6898 29.2906 33.4973 29.094 33.1123 29.094ZM34.4599 27.9145C34.2674 27.9145 34.0749 27.9145 33.8824 28.1111C33.6898 28.5043 33.6898 28.8974 34.0749 29.094C34.2674 29.2906 34.4599 29.2906 34.4599 29.2906C34.6524 29.2906 34.8449 29.2906 35.0374 29.094C35.2299 28.7008 35.2299 28.3077 34.8449 28.1111C34.8449 27.9145 34.6524 27.9145 34.4599 27.9145ZM35.2299 26.3419C34.8449 26.3419 34.6524 26.5384 34.4599 26.9316C34.4599 27.3248 34.6524 27.7179 35.0374 27.7179C35.0374 27.7179 35.0374 27.7179 35.2299 27.7179C35.615 27.7179 35.8075 27.5213 36 27.1282C36 27.1282 36 27.1282 36 26.9316C36 26.735 35.8075 26.3419 35.2299 26.3419ZM35.2299 24.3761C34.8449 24.3761 34.4599 24.7692 34.4599 25.1624V25.359C34.4599 25.7521 34.8449 26.1453 35.2299 26.1453C35.615 26.1453 36 25.7521 36 25.359C36 24.7692 35.615 24.3761 35.2299 24.3761ZM35.2299 22.2137C34.8449 22.2137 34.4599 22.6068 34.4599 23V23.1966C34.4599 23.5897 34.8449 23.9829 35.2299 23.9829C35.615 23.9829 36 23.5897 36 23.1966C36 22.6068 35.615 22.2137 35.2299 22.2137ZM35.4225 19.0684C35.4225 19.0684 35.4225 19.2649 35.4225 19.0684C35.4225 19.2649 35.4225 19.2649 35.4225 19.0684C35.4225 19.2649 35.4225 19.2649 35.4225 19.0684C35.4225 19.2649 35.4225 19.2649 35.4225 19.0684C35.4225 19.2649 35.4225 19.2649 35.4225 19.0684C35.0374 19.4615 35.2299 20.0513 35.615 20.2478H35.4225C35.2299 20.2478 35.0374 20.4444 34.8449 20.641C34.8449 20.641 34.8449 20.641 34.6524 20.641C34.4599 20.641 34.2674 20.641 34.2674 20.8376C33.8823 21.0342 33.8823 21.6239 34.2674 21.8205C34.4599 22.0171 34.6524 22.0171 34.8449 22.0171C35.0374 22.0171 35.2299 22.0171 35.2299 21.8205H35.4225C35.8075 21.8205 36.1925 21.4273 36.1925 21.0342C36.1925 20.8376 36 20.641 35.8075 20.4444H36C35.8075 20.0513 35.615 19.6581 35.4225 19.0684ZM32.7273 21.8205C32.5348 21.8205 32.5348 21.8205 32.3422 21.8205C31.9572 22.0171 31.9572 22.4102 32.1497 22.8034C32.3422 23 32.5348 23.1966 32.7273 23.1966C32.9198 23.1966 32.9198 23.1966 33.1123 23.1966H33.3048C33.6898 23 33.6898 22.6068 33.4973 22.2137C33.3048 22.0171 33.1123 21.8205 32.7273 21.8205ZM30.8021 22.8034H30.6096C30.6096 22.8034 30.6096 22.8034 30.4171 22.8034C30.0321 23 29.8396 23.3931 30.0321 23.7863C30.2246 23.9829 30.4171 24.1795 30.6096 24.1795H30.8021H30.9946C31.3797 23.9829 31.5722 23.5897 31.3797 23.1966C31.3797 23 31.1872 22.8034 30.8021 22.8034ZM28.877 23.5897H28.6845C28.2995 23.7863 28.1069 24.1795 28.2995 24.5726C28.492 24.9658 28.6845 25.1624 29.0695 25.1624H29.262H29.4545C29.8396 24.9658 30.0321 24.5726 29.8396 24.1795C29.4545 23.7863 29.262 23.5897 28.877 23.5897ZM26.9519 24.1795C26.9519 24.1795 26.7594 24.1795 26.9519 24.1795C26.7594 24.1795 26.7594 24.1795 26.9519 24.1795C26.7594 24.1795 26.7594 24.1795 26.7594 24.1795C26.3743 24.1795 26.1818 24.7692 26.1818 25.1624C26.1818 25.5555 26.5668 25.7521 26.9519 25.7521H27.1444H27.3369C27.7219 25.7521 27.9144 25.1624 27.9144 24.7692C27.5294 24.3761 27.3369 24.1795 26.9519 24.1795ZM24.8342 24.5726C24.6417 24.5726 24.6417 24.5726 24.6417 24.5726C24.2567 24.5726 24.0642 24.9658 24.0642 25.359C24.0642 25.7521 24.4492 25.9487 24.8342 25.9487C24.8342 25.9487 24.8342 25.9487 25.0267 25.9487H25.2192C25.6043 25.9487 25.7968 25.5555 25.7968 25.1624C25.6043 24.7692 25.2192 24.5726 24.8342 24.5726ZM22.9091 24.7692C22.7166 24.7692 22.7166 24.7692 22.9091 24.7692C22.7166 24.7692 22.7166 24.7692 22.9091 24.7692C22.3315 24.7692 22.139 25.1624 22.139 25.5555C22.139 25.9487 22.5241 26.1453 22.9091 26.1453H23.1016C23.4866 26.1453 23.8717 25.7521 23.6791 25.359C23.4866 25.1624 23.1016 24.7692 22.9091 24.7692ZM20.7914 24.9658C20.7914 24.9658 20.5989 24.9658 20.7914 24.9658C20.5989 24.9658 20.5989 24.9658 20.7914 24.9658C20.5989 24.9658 20.5989 24.9658 20.7914 24.9658C20.5989 24.9658 20.5989 24.9658 20.7914 24.9658C20.5989 24.9658 20.5989 24.9658 20.7914 24.9658C20.2139 24.9658 20.0214 25.359 20.0214 25.7521C20.0214 26.1453 20.4064 26.5384 20.7914 26.5384H20.984C21.369 26.5384 21.754 26.1453 21.754 25.7521C21.369 25.359 21.1765 24.9658 20.7914 24.9658ZM18.6738 24.9658C18.0963 24.9658 17.9037 25.359 17.9037 25.7521C17.9037 26.1453 18.2888 26.5384 18.6738 26.5384H18.8663C19.2513 26.5384 19.6364 26.1453 19.6364 25.7521C19.4438 25.359 19.0588 24.9658 18.6738 24.9658ZM16.5561 24.9658C16.1711 24.9658 15.7861 25.359 15.7861 25.7521C15.7861 26.1453 16.1711 26.5384 16.5561 26.5384H16.7487C17.1337 26.5384 17.5187 26.1453 17.5187 25.7521C17.3262 25.359 17.1337 24.9658 16.5561 24.9658ZM14.4385 24.9658C14.0535 24.9658 13.6684 25.359 13.6684 25.7521C13.6684 26.1453 13.861 26.5384 14.4385 26.5384H14.631C15.016 26.5384 15.4011 26.1453 15.4011 25.7521C15.4011 25.359 15.016 24.9658 14.4385 24.9658C14.631 24.9658 14.631 24.9658 14.4385 24.9658ZM12.3209 24.7692C11.9358 24.7692 11.7433 24.9658 11.5508 25.359C11.5508 25.7521 11.7433 26.1453 12.1283 26.1453H12.3209C12.7059 26.1453 12.8984 25.9487 13.0909 25.5555C13.2834 25.1624 13.0909 24.7692 12.3209 24.7692C12.5134 24.7692 12.5134 24.7692 12.3209 24.7692C12.5134 24.7692 12.5134 24.7692 12.3209 24.7692C12.5134 24.7692 12.5134 24.7692 12.3209 24.7692C12.5134 24.7692 12.5134 24.7692 12.3209 24.7692C12.5134 24.7692 12.5134 24.7692 12.3209 24.7692C12.5134 24.7692 12.5134 24.7692 12.3209 24.7692C12.5134 24.7692 12.5134 24.7692 12.3209 24.7692C12.5134 24.7692 12.5134 24.7692 12.3209 24.7692C12.5134 24.7692 12.5134 24.7692 12.3209 24.7692C12.5134 24.7692 12.5134 24.7692 12.3209 24.7692C12.5134 24.7692 12.5134 24.7692 12.3209 24.7692ZM10.3957 24.3761C10.0107 24.3761 9.81818 24.5726 9.62567 24.9658C9.62567 25.359 9.81818 25.7521 10.2032 25.7521H10.3957C10.3957 25.7521 10.3957 25.7521 10.5882 25.7521C10.9733 25.7521 11.1658 25.5555 11.3583 25.1624C11.3583 24.7692 11.1658 24.3761 10.7807 24.3761C10.5882 24.3761 10.5882 24.3761 10.3957 24.3761C10.5882 24.3761 10.5882 24.3761 10.3957 24.3761ZM8.27807 23.9829C7.89305 23.9829 7.70053 24.1795 7.50802 24.5726C7.31551 24.9658 7.70053 25.359 8.08556 25.5555H8.27807H8.47059C8.85561 25.5555 9.04813 25.359 9.24064 24.9658C9.43315 24.5726 9.04813 24.1795 8.6631 23.9829C8.6631 23.9829 8.47059 23.9829 8.27807 23.9829C8.47059 23.9829 8.47059 23.9829 8.27807 23.9829ZM6.35294 23.1966C5.96791 23.1966 5.7754 23.3931 5.58289 23.5897C5.39037 23.9829 5.58289 24.3761 5.96791 24.5726H6.16043H6.35294C6.73797 24.5726 6.93048 24.3761 7.12299 24.1795C7.31551 23.7863 7.12299 23.3931 6.73797 23.1966C6.54545 23.1966 6.35294 23.1966 6.35294 23.1966ZM4.42781 22.4102C4.23529 22.4102 3.85027 22.6068 3.85027 22.8034C3.65775 23.1966 3.85027 23.5897 4.23529 23.7863H4.42781C4.62032 23.7863 4.62032 23.7863 4.81283 23.7863C5.00535 23.7863 5.39037 23.5897 5.39037 23.3931C5.58289 23 5.39037 22.6068 5.00535 22.4102C4.62032 22.4102 4.42781 22.4102 4.42781 22.4102ZM2.50267 21.4273C2.31016 21.4273 2.11765 21.6239 1.92513 21.8205C1.73262 22.2137 1.73262 22.6068 2.11765 22.8034H2.31016C2.50267 22.8034 2.50267 23 2.69519 23C2.8877 23 3.08021 22.8034 3.27273 22.6068C3.46524 22.2137 3.46524 21.8205 3.08021 21.6239C2.8877 21.4273 2.69519 21.4273 2.50267 21.4273Z" fill="black"/>
<path d="M0.385027 8.05981C0.192513 8.45298 0.192513 8.84614 0.385027 9.04272C0.192513 9.04272 0 9.04272 0 9.2393C0 9.43588 0 9.63246 0 9.82905C0 10.0256 0 10.0256 0 10.2222C0 10.6154 0.385027 10.812 0.770053 10.812C1.15508 10.812 1.54011 10.4188 1.54011 10.0256V9.82905C1.54011 9.63246 1.54011 9.43588 1.34759 9.43588C1.34759 9.43588 1.34759 9.2393 1.15508 9.2393C0.770053 8.84614 0.57754 8.45298 0.385027 8.05981ZM0.770053 11.4017C0.385027 11.4017 0 11.5983 0 12.188C0 12.5812 0.385027 12.9743 0.770053 12.9743C1.15508 12.9743 1.54011 12.5812 1.54011 12.188V11.9914C1.54011 11.5983 1.15508 11.4017 0.770053 11.4017ZM0.770053 13.3675C0.385027 13.3675 0 13.7607 0 14.1538C0 14.547 0.385027 14.9402 0.770053 14.9402C1.15508 14.9402 1.54011 14.547 1.54011 14.1538V13.9573C1.54011 13.7607 1.15508 13.3675 0.770053 13.3675ZM0.770053 15.3333H0.57754C0.192513 15.5299 0 15.7265 0.192513 16.1196C0.192513 16.1196 0.192513 16.1196 0.192513 16.3162C0.385027 16.7094 0.57754 16.906 0.962567 16.906H1.15508C1.54011 16.7094 1.73262 16.3162 1.73262 15.9231C1.34759 15.5299 1.15508 15.3333 0.770053 15.3333ZM1.73262 16.906C1.54011 16.906 1.34759 16.906 1.34759 17.1025C0.962567 17.2991 0.770053 17.6923 1.15508 18.0855C1.34759 18.282 1.54011 18.282 1.73262 18.282C1.92513 18.282 2.11765 18.282 2.11765 18.0855C2.50267 17.8889 2.50267 17.2991 2.11765 17.1025C2.11765 16.906 1.92513 16.906 1.73262 16.906ZM3.08021 18.0855C2.8877 18.0855 2.69519 18.282 2.50267 18.4786C2.31016 18.6752 2.31016 19.2649 2.69519 19.4615C2.8877 19.6581 3.08021 19.6581 3.08021 19.6581C3.27273 19.6581 3.46524 19.4615 3.65775 19.2649C3.85027 18.8718 3.85027 18.4786 3.46524 18.282C3.27273 18.0855 3.27273 18.0855 3.08021 18.0855ZM4.62032 19.0684C4.42781 19.0684 4.04278 19.2649 4.04278 19.4615C3.85027 19.8547 4.04278 20.2478 4.42781 20.4444C4.62032 20.4444 4.62032 20.4444 4.81283 20.4444C5.00535 20.4444 5.39037 20.2478 5.39037 20.0513C5.58289 19.6581 5.39037 19.2649 5.00535 19.0684C4.81283 19.0684 4.81283 19.0684 4.62032 19.0684ZM6.54545 19.8547C6.16043 19.8547 5.96791 20.0513 5.7754 20.2478C5.58289 20.641 5.7754 21.0342 6.16043 21.2308H6.35294C6.73797 21.2308 6.93048 21.0342 7.12299 20.8376C7.31551 20.4444 7.12299 20.0513 6.73797 19.8547H6.54545ZM8.27808 20.4444C7.89305 20.4444 7.70053 20.641 7.50802 21.0342C7.31551 21.4273 7.70053 21.8205 8.08556 22.0171C8.08556 22.0171 8.08556 22.0171 8.27808 22.0171H8.47059C8.85561 22.0171 9.04813 21.8205 9.24064 21.4273C9.43316 21.0342 9.04813 20.641 8.6631 20.4444H8.47059C8.47059 20.4444 8.47059 20.4444 8.27808 20.4444ZM10.2032 20.8376C9.81818 20.8376 9.62567 21.0342 9.43316 21.4273C9.43316 21.8205 9.62567 22.2137 10.0107 22.2137H10.2032C10.5882 22.2137 10.7807 22.0171 10.9733 21.6239C10.9733 21.2308 10.7807 20.8376 10.3957 20.8376H10.2032C10.3957 21.0342 10.3957 20.8376 10.2032 20.8376ZM12.3209 21.2308C11.9358 21.2308 11.5508 21.6239 11.5508 21.8205C11.5508 22.2137 11.7433 22.6068 12.1283 22.6068C12.1283 22.6068 12.1283 22.6068 12.3209 22.6068C12.7059 22.6068 12.8984 22.4102 13.0909 22.0171C13.0909 21.6239 12.8984 21.2308 12.5134 21.2308H12.3209ZM14.246 21.4273C13.861 21.4273 13.4759 21.6239 13.4759 22.0171C13.4759 22.4102 13.6684 22.8034 14.0535 22.8034C14.4385 22.8034 14.8235 22.6068 14.8235 22.2137C15.016 22.0171 14.8235 21.6239 14.246 21.4273ZM16.1711 21.6239C15.7861 21.6239 15.4011 22.0171 15.4011 22.4102C15.4011 22.8034 15.7861 23.1966 16.1711 23.1966C16.1711 23.1966 16.1711 23.1966 16.3636 23.1966C16.7487 23.1966 17.1337 22.8034 17.1337 22.4102C17.1337 22.0171 16.7487 21.6239 16.1711 21.6239ZM18.2888 21.6239C17.7112 21.6239 17.5187 22.0171 17.5187 22.4102C17.5187 22.8034 17.9037 23.1966 18.2888 23.1966C18.6738 23.1966 19.0588 22.8034 19.0588 22.4102C19.0588 22.0171 18.6738 21.6239 18.2888 21.6239ZM20.4064 21.6239C20.2139 21.6239 20.2139 21.6239 20.4064 21.6239C19.8289 21.6239 19.6364 22.0171 19.6364 22.4102C19.6364 22.8034 20.0214 23.1966 20.4064 23.1966C20.7914 23.1966 21.1765 22.8034 21.1765 22.4102C20.984 22.0171 20.7914 21.6239 20.4064 21.6239ZM22.3316 21.4273C21.754 21.4273 21.5615 21.8205 21.5615 22.2137C21.5615 22.6068 21.9465 22.8034 22.3316 22.8034C22.7166 22.8034 23.1016 22.4102 22.9091 22.0171C22.9091 21.8205 22.7166 21.4273 22.3316 21.4273ZM24.2567 21.2308H24.0642C23.6791 21.2308 23.4866 21.6239 23.4866 22.0171C23.4866 22.4102 23.8717 22.6068 24.2567 22.6068C24.2567 22.6068 24.2567 22.6068 24.4492 22.6068C24.8342 22.6068 25.0267 22.2137 25.0267 21.8205C25.0267 21.4273 24.6417 21.2308 24.2567 21.2308ZM26.1818 20.8376H25.9893C25.6043 20.8376 25.4118 21.2308 25.4118 21.6239C25.4118 22.0171 25.7968 22.2137 26.1818 22.2137H26.3743C26.7594 22.2137 26.9519 21.8205 26.9519 21.4273C26.7594 21.0342 26.5668 20.8376 26.1818 20.8376ZM28.107 20.2478H27.9144H27.7219C27.3369 20.4444 27.1444 20.8376 27.1444 21.2308C27.1444 21.6239 27.5294 21.8205 27.9144 21.8205H28.107C28.107 21.8205 28.107 21.8205 28.2995 21.8205C28.6845 21.6239 28.877 21.2308 28.877 20.8376C28.6845 20.4444 28.492 20.2478 28.107 20.2478ZM30.0321 19.6581H29.8396C29.4545 19.8547 29.262 20.2478 29.4545 20.641C29.6471 20.8376 29.8396 21.0342 30.0321 21.0342H30.2246C30.6096 20.8376 30.8021 20.4444 30.6096 20.0513C30.6096 19.8547 30.2246 19.6581 30.0321 19.6581ZM31.7647 18.8718C31.5722 18.8718 31.5722 18.8718 31.3797 18.8718C30.9946 19.0684 30.8021 19.4615 30.9947 19.8547C31.1872 20.0513 31.3797 20.2478 31.5722 20.2478C31.7647 20.2478 31.7647 20.2478 31.9572 20.2478C32.3422 20.0513 32.3422 19.6581 32.1497 19.2649C32.3422 18.8718 31.9572 18.8718 31.7647 18.8718ZM33.3048 17.6923C33.1123 17.6923 32.9198 17.6923 32.9198 17.8889C32.5348 18.0855 32.5348 18.6752 32.7273 18.8718C32.9198 19.0684 33.1123 19.0684 33.3048 19.0684C33.4973 19.0684 33.6898 19.0684 33.6898 18.8718C34.0749 18.6752 34.0749 18.0855 33.8824 17.8889C33.8824 17.8889 33.4973 17.6923 33.3048 17.6923ZM34.6524 16.5128C34.4599 16.5128 34.2674 16.7094 34.0749 16.906C33.8824 17.2991 33.8824 17.6923 34.2674 17.8889C34.4599 18.0855 34.4599 18.0855 34.6524 18.0855C34.8449 18.0855 35.0374 18.0855 35.2299 17.8889C35.4225 17.4957 35.4225 17.1025 35.0374 16.906C35.0374 16.5128 34.8449 16.5128 34.6524 16.5128ZM35.2299 14.9402C34.8449 14.9402 34.4599 15.1367 34.4599 15.5299C34.4599 15.9231 34.6524 16.3162 35.0374 16.3162C35.4225 16.3162 35.615 16.1196 35.8075 15.7265C36 15.3333 35.8075 14.9402 35.2299 14.9402ZM35.2299 12.9743C34.8449 12.9743 34.4599 13.3675 34.4599 13.7607H34.6524C34.6524 14.1538 35.0374 14.547 35.4225 14.547C35.8075 14.547 36.1925 14.1538 36.1925 13.7607C36 13.1709 35.615 12.9743 35.2299 12.9743ZM35.615 8.05981C35.4225 8.05981 35.4225 8.2564 35.4225 8.45298C35.4225 8.64956 35.4225 8.64956 35.4225 8.84614C35.2299 9.2393 35.0374 9.43588 34.8449 9.63246V9.82905C34.6524 9.82905 34.6524 9.82905 34.4599 10.0256C34.0749 10.2222 34.0749 10.812 34.2674 11.0085C34.4599 11.2051 34.6524 11.4017 34.8449 11.4017V11.5983V11.7949C34.8449 12.188 35.2299 12.5812 35.615 12.5812C36 12.5812 36.385 12.188 36.385 11.7949C36.385 11.4017 36 11.0085 35.615 11.0085C35.615 10.812 35.615 10.6154 35.615 10.6154C36 10.6154 36.1925 10.2222 36.1925 9.82905C36 9.04272 35.8075 8.45298 35.615 8.05981ZM32.7273 11.0085C32.5348 11.0085 32.5348 11.0085 32.3422 11.0085C31.9572 11.2051 31.7647 11.5983 31.9572 11.9914C32.1497 12.188 32.3422 12.3846 32.5348 12.3846C32.7273 12.3846 32.7273 12.3846 32.9198 12.3846H33.1123C33.4973 12.188 33.6898 11.7949 33.4973 11.4017C33.3048 11.2051 32.9198 11.0085 32.7273 11.0085ZM30.8021 11.7949H30.6096C30.6096 11.7949 30.6096 11.7949 30.4171 11.7949C30.0321 11.9914 29.8396 12.3846 30.0321 12.7778C30.2246 13.1709 30.4171 13.3675 30.8021 13.3675H30.9947H31.1872C31.5722 13.1709 31.7647 12.7778 31.5722 12.3846C31.3797 11.9914 30.9946 11.7949 30.8021 11.7949ZM28.877 12.3846C28.6845 12.3846 28.6845 12.3846 28.877 12.3846C28.6845 12.3846 28.6845 12.3846 28.6845 12.3846C28.2995 12.5812 28.107 12.9743 28.107 13.3675C28.107 13.7607 28.492 13.9573 28.877 13.9573H29.0695H29.262C29.6471 13.7607 29.8396 13.3675 29.8396 12.9743C29.4545 12.5812 29.0695 12.3846 28.877 12.3846ZM26.7594 12.9743C26.5668 12.9743 26.5668 12.9743 26.5668 12.9743C26.1818 12.9743 25.9893 13.3675 25.9893 13.7607C25.9893 14.1538 26.3743 14.3504 26.7594 14.3504C26.7594 14.3504 26.7594 14.3504 26.9519 14.3504H27.1444C27.5294 14.3504 27.7219 13.9573 27.7219 13.5641C27.3369 13.1709 27.1444 12.9743 26.7594 12.9743ZM24.6417 13.1709C24.4492 13.1709 24.4492 13.1709 24.4492 13.1709C24.0642 13.1709 23.6791 13.5641 23.8717 13.9573C23.8717 14.3504 24.2567 14.547 24.6417 14.547H24.8342C25.2192 14.547 25.4118 14.1538 25.4118 13.7607C25.4118 13.5641 25.0267 13.1709 24.6417 13.1709ZM22.7166 13.3675C22.5241 13.3675 22.5241 13.3675 22.7166 13.3675C22.5241 13.3675 22.5241 13.3675 22.7166 13.3675C22.5241 13.3675 22.5241 13.3675 22.7166 13.3675C22.139 13.3675 21.9465 13.7607 21.9465 14.1538C21.9465 14.547 22.3316 14.7436 22.7166 14.7436H22.9091C23.2941 14.7436 23.6791 14.3504 23.4866 13.9573C23.2941 13.7607 23.1016 13.3675 22.7166 13.3675ZM20.5989 13.5641C20.4064 13.5641 20.4064 13.5641 20.5989 13.5641C20.4064 13.5641 20.4064 13.5641 20.5989 13.5641C20.4064 13.5641 20.4064 13.5641 20.5989 13.5641C20.0214 13.5641 19.8289 13.9573 19.8289 14.3504C19.8289 14.7436 20.2139 15.1367 20.5989 15.1367H20.7914C21.1765 15.1367 21.5615 14.7436 21.5615 14.3504C21.369 13.9573 20.984 13.5641 20.5989 13.5641ZM18.4813 13.5641C17.9037 13.5641 17.7112 13.9573 17.7112 14.3504C17.7112 14.7436 18.0963 15.1367 18.4813 15.1367H18.6738C19.0588 15.1367 19.4438 14.7436 19.4438 14.3504C19.2513 13.9573 18.8663 13.5641 18.4813 13.5641ZM16.3636 13.5641C15.9786 13.5641 15.5936 13.9573 15.5936 14.3504C15.5936 14.7436 15.9786 15.1367 16.3636 15.1367H16.5562C16.9412 15.1367 17.3262 14.7436 17.3262 14.3504C17.1337 13.9573 16.9412 13.5641 16.3636 13.5641C16.5561 13.5641 16.3636 13.5641 16.3636 13.5641ZM14.246 13.5641C13.861 13.5641 13.6684 13.7607 13.6684 14.1538C13.6684 14.547 13.861 14.9402 14.246 14.9402H14.4385C14.8235 14.9402 15.2086 14.547 15.2086 14.3504C15.2086 13.9573 14.8235 13.5641 14.246 13.5641C14.4385 13.5641 14.4385 13.5641 14.246 13.5641C14.4385 13.5641 14.4385 13.5641 14.246 13.5641C14.4385 13.5641 14.4385 13.5641 14.246 13.5641C14.4385 13.5641 14.4385 13.5641 14.246 13.5641C14.4385 13.5641 14.4385 13.5641 14.246 13.5641ZM12.3209 13.3675C11.9358 13.3675 11.5508 13.5641 11.5508 13.9573C11.5508 14.3504 11.7433 14.7436 12.1283 14.7436H12.3209C12.7059 14.7436 13.0909 14.547 13.0909 14.1538C13.0909 13.7607 12.8984 13.3675 12.3209 13.3675C12.5134 13.3675 12.3209 13.3675 12.3209 13.3675ZM10.3957 12.9743C10.0107 12.9743 9.62567 13.3675 9.62567 13.7607C9.62567 14.1538 9.81818 14.547 10.2032 14.547C10.2032 14.547 10.2032 14.547 10.3957 14.547C10.7807 14.547 10.9733 14.3504 11.1658 13.9573C11.1658 13.5641 10.7807 13.1709 10.3957 12.9743ZM8.27808 12.5812C7.89305 12.5812 7.70053 12.7778 7.50802 13.1709C7.50802 13.5641 7.70053 13.9573 8.08556 13.9573H8.27808H8.47059C8.85561 13.9573 9.04813 13.7607 9.24064 13.3675C9.24064 12.9743 9.04813 12.5812 8.6631 12.5812C8.47059 12.7778 8.47059 12.7778 8.27808 12.5812ZM6.16043 12.188C5.7754 12.188 5.58289 12.3846 5.39037 12.5812C5.39037 12.9743 5.58289 13.5641 5.96791 13.5641H6.16043H6.35294C6.73797 13.5641 6.93048 13.3675 7.12299 12.9743C7.31551 12.5812 6.93048 12.188 6.54545 11.9914C6.54545 11.9914 6.54545 11.9914 6.35294 11.9914C6.35294 12.188 6.16043 12.188 6.16043 12.188ZM4.23529 11.4017C3.85027 11.4017 3.65775 11.5983 3.46524 11.7949C3.46524 12.188 3.46524 12.7778 3.85027 12.7778H4.04278H4.23529C4.42781 12.7778 4.81283 12.5812 4.81283 12.3846C5.00535 11.9914 4.81283 11.5983 4.42781 11.4017H4.23529ZM2.31016 10.4188C2.11765 10.4188 1.73262 10.6154 1.73262 10.812C1.54011 11.2051 1.54011 11.5983 1.92513 11.7949H2.11765C2.31016 11.7949 2.31016 11.7949 2.50267 11.7949C2.69519 11.7949 3.08021 11.5983 3.08021 11.4017C3.27273 11.0085 3.08021 10.6154 2.8877 10.4188C2.50267 10.4188 2.31016 10.4188 2.31016 10.4188Z" fill="black"/>
<path d="M17.9038 0C17.5188 0 17.1337 0.393162 17.1337 0.786325C17.1337 1.17949 17.5188 1.57265 17.9038 1.57265H18.0963C18.2888 1.57265 18.2888 1.57265 18.4813 1.57265C18.6738 1.57265 18.6738 1.57265 18.8664 1.57265H19.0589C19.4439 1.57265 19.8289 1.17949 19.8289 0.786325C19.4439 0.393162 19.2514 0 18.8664 0C18.4813 0 18.4813 0 18.2888 0C18.2888 0 18.0963 0 17.9038 0C18.0963 0 18.0963 0 17.9038 0ZM15.9787 0.196581C15.7861 0.196581 15.7861 0.196581 15.9787 0.196581C15.4011 0.196581 15.2086 0.393162 15.2086 0.982906C15.2086 1.37607 15.5936 1.76923 15.9787 1.76923H16.1712C16.5562 1.76923 16.9412 1.37607 16.9412 0.982906C16.7487 0.393162 16.3637 0.196581 15.9787 0.196581ZM14.0535 0.196581C13.861 0.196581 13.861 0.196581 14.0535 0.196581C13.861 0.196581 13.861 0.196581 14.0535 0.196581C13.861 0.196581 13.861 0.196581 14.0535 0.196581C13.861 0.196581 13.861 0.196581 14.0535 0.196581C13.861 0.196581 13.861 0.196581 14.0535 0.196581C13.861 0.196581 13.861 0.196581 14.0535 0.196581C13.861 0.196581 13.861 0.196581 14.0535 0.196581C13.476 0.196581 13.091 0.589744 13.091 0.982906C13.091 1.37607 13.476 1.57265 13.861 1.57265H14.0535C14.4386 1.57265 14.8236 1.17949 14.6311 0.786325C14.6311 0.589744 14.246 0.196581 14.0535 0.196581ZM11.9359 0.393162C11.7434 0.393162 11.7434 0.393162 11.7434 0.393162C11.3583 0.393162 10.9733 0.786325 11.1658 1.17949C11.1658 1.57265 11.5509 1.96581 11.9359 1.96581H12.1284C12.5134 1.96581 12.8984 1.57265 12.7059 1.17949C12.7059 0.589744 12.3209 0.393162 11.9359 0.393162ZM10.0107 0.786325C9.81823 0.786325 9.81823 0.786325 9.81823 0.786325C9.4332 0.786325 9.24069 1.17949 9.24069 1.57265C9.24069 1.96581 9.62572 2.16239 9.81823 2.16239C9.81823 2.16239 9.81823 2.16239 10.0107 2.16239H10.2033C10.5883 2.16239 10.7808 1.76923 10.7808 1.37607C10.5883 0.982906 10.3958 0.786325 10.0107 0.786325ZM8.08561 1.17949C8.08561 1.17949 7.8931 1.17949 8.08561 1.17949C7.8931 1.17949 7.8931 1.17949 7.8931 1.17949C7.31556 1.17949 7.12304 1.57265 7.31556 1.96581C7.31556 2.35897 7.70058 2.55556 8.08561 2.55556H8.27813H8.47064C8.85567 2.55556 9.04818 1.96581 9.04818 1.57265C8.66315 1.37607 8.47064 1.17949 8.08561 1.17949ZM6.16048 1.57265H5.96797C5.39042 1.76923 5.19791 2.16239 5.39042 2.55556C5.39042 2.94872 5.77545 3.1453 5.96797 3.1453H6.16048C6.54551 2.94872 6.73802 2.55556 6.54551 2.16239C6.73802 1.76923 6.54551 1.57265 6.16048 1.57265ZM4.23534 2.35897H4.04283C3.46529 2.55556 3.46529 2.94872 3.46529 3.34188C3.6578 3.73504 3.85032 3.93162 4.23534 3.93162H4.42786C4.81288 3.73504 5.0054 3.34188 4.81288 2.94872C4.81288 2.55556 4.62037 2.35897 4.23534 2.35897ZM2.69524 3.1453C2.50272 3.1453 2.50272 3.1453 2.31021 3.34188C1.92518 3.73504 1.73267 4.1282 1.92518 4.52137C2.1177 4.71795 2.31021 4.91453 2.50272 4.91453C2.69524 4.91453 2.88775 4.91453 2.88775 4.71795C3.46529 4.32479 3.46529 3.93162 3.27278 3.53846C3.08026 3.34188 2.88775 3.1453 2.69524 3.1453ZM1.34764 4.52137C1.15513 4.52137 0.962618 4.71795 0.770104 4.91453C0.577591 5.30769 0.577591 5.70085 0.962618 5.89744C0.577591 6.09402 0.577591 6.48718 0.577591 6.68376C0.577591 6.68376 0.577591 6.68376 0.577591 6.88034C0.770104 7.07692 0.962618 7.2735 1.15513 7.2735C1.34764 7.2735 1.34764 7.2735 1.54016 7.2735C1.92518 7.07692 2.1177 6.68376 1.92518 6.2906C1.92518 6.09402 1.73267 6.09402 1.73267 5.89744C1.92518 5.89744 1.92518 5.70085 1.92518 5.70085C2.1177 5.30769 2.1177 4.91453 1.73267 4.71795C1.73267 4.52137 1.54016 4.52137 1.34764 4.52137ZM2.31021 7.07692C2.1177 7.07692 1.92518 7.07692 1.73267 7.2735C1.54016 7.66667 1.54016 8.05983 1.92518 8.25641C2.1177 8.25641 2.1177 8.45299 2.31021 8.45299C2.50272 8.45299 2.69524 8.25641 2.88775 8.05983C3.27278 7.86325 3.27278 7.47009 2.88775 7.2735C2.69524 7.07692 2.50272 7.07692 2.31021 7.07692ZM4.04283 8.05983C3.85032 8.05983 3.46529 8.25641 3.46529 8.45299C3.27278 8.84615 3.46529 9.23932 3.85032 9.4359C3.85032 9.4359 4.04283 9.4359 4.23534 9.4359C4.42786 9.4359 4.81288 9.23932 4.81288 9.04274C5.0054 8.64957 4.81288 8.25641 4.42786 8.05983C4.23534 8.05983 4.04283 8.05983 4.04283 8.05983ZM5.77545 8.64957C5.39043 8.64957 5.19791 8.84615 5.0054 9.23932C4.81288 9.63248 5.0054 10.0256 5.39042 10.2222C5.39042 10.2222 5.39043 10.2222 5.58294 10.2222H5.77545C6.16048 10.2222 6.35299 10.0256 6.54551 9.63248C6.73802 9.23932 6.54551 8.84615 6.16048 8.64957C5.96797 8.64957 5.96797 8.64957 5.77545 8.64957ZM7.70059 9.23932C7.31556 9.23932 7.12304 9.4359 6.93053 9.82906C6.93053 10.2222 7.12305 10.6154 7.50807 10.812H7.70059C8.08561 10.812 8.27813 10.6154 8.47064 10.2222C8.66315 9.82906 8.47064 9.4359 8.08561 9.23932H7.70059C7.8931 9.23932 7.70059 9.23932 7.70059 9.23932ZM9.62572 9.63248C9.24069 9.63248 9.04818 9.82906 8.85567 10.2222C8.85567 10.6154 9.04818 11.0085 9.43321 11.0085C9.43321 11.0085 9.4332 11.0085 9.62572 11.0085C10.0107 11.0085 10.2033 10.812 10.3958 10.4188C10.5883 10.2222 10.2033 9.82906 9.81823 9.82906L9.62572 9.63248C9.81823 9.63248 9.62572 9.63248 9.62572 9.63248ZM11.5509 10.0256C11.1658 10.0256 10.9733 10.2222 10.7808 10.6154C10.7808 11.0085 10.9733 11.4017 11.3583 11.4017C11.7434 11.4017 11.9359 11.2051 12.1284 10.812C12.1284 10.4188 11.9359 10.0256 11.5509 10.0256C11.7434 10.0256 11.7434 10.0256 11.5509 10.0256ZM13.6685 10.2222C13.2835 10.2222 12.8984 10.4188 12.8984 10.812C12.8984 11.4017 13.091 11.5983 13.476 11.7949C13.861 11.7949 14.246 11.5983 14.246 11.2051C14.4386 10.6154 14.246 10.2222 13.6685 10.2222ZM15.5936 10.4188C15.2086 10.4188 14.8236 10.812 14.8236 11.2051C14.8236 11.4017 15.2086 11.7949 15.5936 11.7949C15.9787 11.7949 16.3637 11.4017 16.3637 11.0085C16.3637 10.812 16.1712 10.4188 15.5936 10.4188ZM17.7113 10.4188C17.3263 10.4188 16.9412 10.812 16.9412 11.2051C16.9412 11.5983 17.3263 11.9915 17.7113 11.9915C17.7113 11.9915 17.7113 11.9915 17.9038 11.9915C18.2888 11.9915 18.6738 11.5983 18.6738 11.2051C18.4813 10.812 18.0963 10.4188 17.7113 10.4188ZM19.6364 10.4188C19.0589 10.4188 18.8664 10.812 18.8664 11.2051C18.8664 11.5983 19.2514 11.7949 19.6364 11.7949C20.0214 11.7949 20.4065 11.4017 20.4065 11.0085C20.4065 10.6154 20.0214 10.4188 19.6364 10.4188ZM21.7541 10.2222C21.1765 10.2222 20.984 10.6154 20.984 11.0085C20.984 11.4017 21.1765 11.7949 21.5615 11.7949C21.5615 11.7949 21.5615 11.7949 21.7541 11.7949C22.1391 11.7949 22.5241 11.4017 22.3316 11.0085C22.3316 10.6154 22.1391 10.2222 21.7541 10.2222ZM23.6792 10.0256C23.1017 10.0256 22.7166 10.4188 22.9091 10.812C22.9091 11.2051 23.2942 11.4017 23.6792 11.4017C24.0642 11.4017 24.4492 11.0085 24.2567 10.6154C24.4492 10.4188 24.0642 10.0256 23.6792 10.0256ZM25.6043 9.82906H25.4118C25.0268 9.82906 24.8343 10.2222 24.8343 10.6154C24.8343 11.0085 25.2193 11.2051 25.6043 11.2051C25.6043 11.2051 25.6043 11.2051 25.7968 11.2051C25.7968 11.2051 25.7968 11.2051 25.9894 11.2051C26.3744 11.2051 26.5669 10.812 26.5669 10.4188C26.3744 10.0256 25.9894 9.82906 25.6043 9.82906ZM27.722 9.4359C27.5295 9.4359 27.5295 9.4359 27.722 9.4359H27.5295C27.1444 9.4359 26.9519 9.82906 26.9519 10.2222C26.9519 10.6154 27.3369 10.812 27.722 10.812H27.9145C28.2995 10.812 28.492 10.4188 28.492 10.0256C28.2995 9.63248 27.9145 9.4359 27.722 9.4359ZM29.6471 8.84615H29.4546C28.8771 9.04274 28.6845 9.4359 28.6845 9.82906C28.6845 10.2222 29.0696 10.4188 29.4546 10.4188H29.6471C29.6471 10.4188 29.6471 10.4188 29.8396 10.4188C30.2246 10.2222 30.4172 9.82906 30.4172 9.4359C30.2246 9.04274 29.8396 8.84615 29.6471 8.84615ZM31.3797 8.25641H31.1872C30.8022 8.45299 30.6097 8.84615 30.8022 9.23932C30.8022 9.63248 30.9947 9.82906 31.3797 9.82906H31.5722C31.9573 9.63248 32.1498 9.23932 31.9573 8.84615C31.9573 8.45299 31.7648 8.25641 31.3797 8.25641ZM33.1124 7.47009C32.9198 7.47009 32.9198 7.47009 32.7273 7.66667C32.3423 7.86325 32.3423 8.25641 32.5348 8.64957C32.7273 8.84615 32.9198 9.04274 33.1124 9.04274C33.3049 9.04274 33.3049 9.04274 33.4974 8.84615C33.4974 8.84615 33.4974 8.84615 33.6899 8.84615C34.0749 8.64957 34.0749 8.25641 33.8824 7.86325C33.4974 7.47009 33.3049 7.47009 33.1124 7.47009ZM34.845 4.91453C34.6525 4.91453 34.6525 4.91453 34.845 4.91453C34.2674 5.11111 34.0749 5.50427 34.0749 5.89744C34.0749 6.09402 34.2674 6.09402 34.2674 6.2906C34.0749 6.2906 33.8824 6.48718 33.8824 6.48718C33.6899 6.88034 33.6899 7.2735 34.0749 7.47009C34.2674 7.66667 34.4599 7.66667 34.4599 7.66667C34.6525 7.66667 34.845 7.66667 35.0375 7.47009C35.23 7.2735 35.23 6.68376 35.0375 6.48718C35.4225 6.48718 35.615 6.09402 35.615 5.70085C35.4225 5.11111 35.0375 4.91453 34.845 4.91453ZM33.8824 3.53846C33.6899 3.53846 33.4974 3.53846 33.3049 3.73504C33.1123 4.12821 33.1123 4.52137 33.3049 4.71795C33.4974 4.91453 33.6899 4.91453 33.6899 4.91453C33.8824 4.91453 34.0749 4.91453 34.2674 4.71795C34.6525 4.52137 34.6525 4.12821 34.4599 3.93162C34.0749 3.73504 34.0749 3.53846 33.8824 3.53846ZM32.3423 2.55556C32.1498 2.55556 31.7648 2.75214 31.7648 2.94872C31.5722 3.34188 31.7648 3.73504 32.1498 3.93162C32.3423 3.93162 32.3423 3.93162 32.5348 3.93162C32.7273 3.93162 33.1124 3.73504 33.1124 3.53846C33.3049 3.1453 33.1124 2.75214 32.7273 2.55556C32.5348 2.55556 32.3423 2.55556 32.3423 2.55556ZM30.4172 1.76923C30.0321 1.76923 29.8396 1.96581 29.6471 2.35897C29.4546 2.75214 29.6471 3.1453 30.0321 3.34188H30.2246C30.6097 3.34188 30.8022 3.1453 30.9947 2.75214C31.3797 2.55556 31.1872 1.96581 30.8022 1.96581C30.6097 1.76923 30.6097 1.76923 30.4172 1.76923ZM28.6845 1.17949C28.2995 1.17949 28.107 1.37607 27.9145 1.76923C27.722 2.16239 28.107 2.55556 28.492 2.75214H28.6845H28.8771C29.2621 2.75214 29.4546 2.55556 29.6471 2.16239C29.8396 1.76923 29.4546 1.37607 29.0696 1.17949C28.8771 1.37607 28.8771 1.37607 28.6845 1.17949C28.6845 1.37607 28.6845 1.17949 28.6845 1.17949ZM26.5669 0.786325C26.1819 0.786325 25.9894 0.982906 25.7968 1.37607C25.7968 1.76923 25.9894 2.16239 26.3744 2.16239H26.5669C26.5669 2.16239 26.5669 2.16239 26.7594 2.16239C27.1444 2.16239 27.3369 1.96581 27.5295 1.57265C27.5295 1.17949 27.3369 0.786325 26.9519 0.786325C26.9519 0.786325 26.7594 0.786325 26.5669 0.786325C26.7594 0.786325 26.7594 0.786325 26.5669 0.786325ZM24.6418 0.589744C24.2567 0.589744 24.0642 0.786325 23.8717 1.17949C23.8717 1.57265 24.0642 1.96581 24.4492 1.96581H24.6418C24.6418 1.96581 24.6418 1.96581 24.8343 1.96581C25.2193 1.96581 25.4118 1.76923 25.6043 1.37607C25.6043 0.982906 25.4118 0.589744 25.0268 0.589744C24.8343 0.589744 24.8343 0.589744 24.6418 0.589744C24.8343 0.589744 24.6418 0.589744 24.6418 0.589744ZM22.7166 0.196581C22.3316 0.196581 21.9466 0.393162 21.9466 0.786325C21.9466 1.17949 22.1391 1.57265 22.5241 1.57265H22.7166C23.1017 1.57265 23.4867 1.37607 23.4867 0.982906C23.4867 0.589744 23.2942 0.393162 22.7166 0.196581C22.9091 0.196581 22.9091 0.196581 22.7166 0.196581C22.9091 0.196581 22.9091 0.196581 22.7166 0.196581ZM20.7915 0.196581C20.4065 0.196581 20.0214 0.589744 20.0214 0.982906C20.0214 1.37607 20.214 1.76923 20.7915 1.76923H20.984C21.369 1.76923 21.7541 1.37607 21.7541 0.982906C21.5615 0.393162 21.1765 0.196581 20.7915 0.196581Z" fill="black"/>
</svg>
