<svg width="36" height="51" viewBox="0 0 36 51" fill="none" xmlns="http://www.w3.org/2000/svg">
<path d="M15.6179 44.6966C15.0565 44.6966 14.495 44.5056 13.9335 44.5056C11.126 44.3146 8.31848 43.7415 5.511 42.5955C3.82651 41.8314 2.14201 41.0674 1.01902 39.5393C0.457522 38.7752 0.0831909 37.8202 0.0831909 36.8651C0.0831909 35.146 0.0831909 33.4269 0.0831909 31.7078C0.0831909 31.1348 0.270357 30.3707 0.644688 29.7977C2.32918 32.2808 4.76234 33.2359 7.38266 33.9999C11.3131 35.146 15.2436 35.528 19.1741 35.337C22.1688 35.146 25.1634 34.764 28.1581 33.8089C30.0297 33.2359 31.9014 32.2808 33.3987 30.9438C33.773 30.5617 34.1474 30.1797 34.5217 29.6067C34.7089 30.1797 34.896 30.7528 34.896 31.3258C34.896 33.2359 34.896 35.146 34.896 37.0561C34.896 38.2022 34.1474 39.1573 33.3987 39.9213C32.2757 40.8764 30.9655 41.6404 29.6554 42.2134C27.2222 43.3595 24.6019 43.9325 21.7944 44.1235C21.0458 44.1235 20.1099 44.3146 19.3613 44.3146C18.2383 44.6966 16.9281 44.6966 15.6179 44.6966Z" fill="black"/>
<path d="M0.644682 18.5281C1.95484 20.6292 3.8265 21.5843 5.69816 22.3483C8.31848 23.4944 11.126 24.0674 13.9335 24.2584C15.9923 24.4494 18.0511 24.4494 20.1099 24.2584C23.8532 24.0674 27.4094 23.3034 30.9655 21.5843C32.2757 20.8202 33.5859 20.0562 34.5217 18.5281C34.896 19.1011 35.0832 19.6741 35.0832 20.2472C35.0832 22.1573 35.0832 23.8764 35.0832 25.7865C35.0832 26.9326 34.3345 27.8876 33.5859 28.8427C32.0885 30.1798 30.404 30.9438 28.5324 31.7079C25.9121 32.6629 23.1046 33.0449 20.2971 33.2359C16.5538 33.4269 12.9976 33.2359 9.25431 32.4719C6.82115 31.8989 4.388 31.1348 2.32917 29.6067C1.20618 28.8427 0.270351 27.8876 0.0831848 26.3595C-0.103981 24.2584 0.0831848 22.1573 0.0831848 19.8652C0.0831848 19.4831 0.457516 19.1011 0.644682 18.5281Z" fill="black"/>
<path d="M34.7089 7.83154C34.896 8.40458 35.0832 8.97761 35.0832 9.35963C35.0832 11.2697 35.0832 12.9888 35.0832 14.899C35.0832 16.236 34.3345 17.1911 33.5859 17.9551C32.0885 19.2922 30.404 20.2473 28.5324 20.8203C24.4147 22.1574 20.1099 22.5394 15.8051 22.3484C12.8105 22.1574 9.81581 21.7754 6.82116 20.8203C4.9495 20.2473 3.26501 19.4832 1.76768 18.1461C0.644688 17.1911 0.0831909 16.045 0.0831909 14.5169C0.0831909 12.7978 0.0831909 11.0787 0.0831909 9.55064C0.0831909 8.97761 0.270357 8.40458 0.457522 7.83154C1.01902 9.55064 2.51635 10.3147 3.82651 10.8877C5.88533 11.8428 7.94415 12.4158 10.1901 12.6068C13.372 13.1799 16.5538 13.3709 19.9228 13.1799C23.4789 12.9888 27.0351 12.6068 30.404 11.2697C31.1527 10.8877 31.9014 10.5057 32.65 10.1237C33.5859 9.55064 34.3345 8.97761 34.7089 7.83154Z" fill="black"/>
<path d="M17.4896 0C21.2329 0 24.789 0.382022 28.3452 1.33708C30.0297 1.7191 31.527 2.29213 33.0243 3.4382C33.3986 3.82022 33.9601 4.20225 34.1473 4.77528C34.896 5.73034 34.7088 6.68539 33.773 7.64045C32.8372 8.5955 31.7142 8.97753 30.5912 9.55056C28.3452 10.5056 25.912 10.8876 23.2917 11.2697C21.0457 11.4607 18.6126 11.6517 16.1794 11.4607C12.2489 11.4607 8.31843 10.8876 4.76228 9.55056C3.45212 9.16854 2.32913 8.5955 1.3933 7.64045C0.457471 6.68539 0.270306 5.73034 0.831803 4.77528C1.20613 4.20225 1.58047 3.82022 2.14196 3.4382C3.07779 2.67416 4.38795 2.10112 5.69811 1.7191C8.31843 0.955056 10.9388 0.382022 13.5591 0.191011C14.8692 0.191011 16.1794 0 17.4896 0Z" fill="black"/>
<path d="M27.9708 50.2359C25.912 50.2359 24.6019 48.7078 24.6019 46.6067C24.6019 44.5056 26.0992 42.9775 27.9708 42.9775C30.0297 42.9775 31.3398 44.5056 31.3398 46.6067C31.3398 48.7078 30.0297 50.2359 27.9708 50.2359ZM26.2863 40.4944C25.912 40.4944 25.5377 40.1123 25.5377 39.7303L24.9762 16.809C24.9762 16.618 24.9762 16.4269 25.1633 16.2359C25.3505 16.0449 25.5377 16.0449 25.7248 16.0449H30.2168C30.404 16.0449 30.5912 16.0449 30.7783 16.2359C30.9655 16.4269 30.9655 16.618 30.9655 16.809L30.404 39.7303C30.404 40.1123 30.0297 40.4944 29.6553 40.4944H26.2863Z" fill="black"/>
<path d="M30.2168 17L29.6553 39.9214H26.2863L25.7248 17H30.2168ZM27.9708 43.7416C29.6553 43.7416 30.7783 44.8877 30.7783 46.6068C30.7783 48.3259 29.6553 49.4719 27.9708 49.4719C26.2863 49.4719 25.1633 48.1348 25.1633 46.6068C25.1633 44.8877 26.2863 43.7416 27.9708 43.7416ZM30.2168 15.4719H25.7248C25.3505 15.4719 24.9762 15.6629 24.789 15.8539C24.6018 16.045 24.4147 16.427 24.4147 16.809L24.9762 39.7303C24.9762 40.4944 25.5377 41.0674 26.2863 41.0674H29.4682C30.2168 41.0674 30.7783 40.4944 30.7783 39.7303L31.3398 16.809C31.3398 16.427 31.1526 16.045 30.9655 15.8539C30.9655 15.6629 30.5911 15.4719 30.2168 15.4719ZM27.9708 42.2135C25.5377 42.2135 23.8532 44.1236 23.8532 46.6068C23.8532 49.0899 25.7248 51 27.9708 51C30.404 51 32.0885 49.0899 32.0885 46.6068C32.0885 44.1236 30.404 42.2135 27.9708 42.2135Z" fill="#E7E7E7"/>
</svg>
