<svg width="49" height="49" viewBox="0 0 49 49" fill="none" xmlns="http://www.w3.org/2000/svg">
<path fill-rule="evenodd" clip-rule="evenodd" d="M48.955 24.4775C48.955 37.996 37.996 48.955 24.4775 48.955C10.9589 48.955 0 37.996 0 24.4775C0 10.9589 10.9589 0 24.4775 0C37.996 0 48.955 10.9589 48.955 24.4775ZM31.0589 26.9468C30.3887 26.9468 29.8474 27.476 29.8474 28.1276V32.8518C29.8474 33.5022 29.3044 34.0325 28.6353 34.0325H25.0001V16.3182C25.0001 15.3096 24.3406 14.4084 23.35 14.0735L22.991 13.9567H28.6353C29.3044 13.9567 29.8474 14.487 29.8474 15.138V18.6809C29.8474 19.3324 30.3893 19.8616 31.0589 19.8616C31.7286 19.8616 32.2705 19.3324 32.2705 18.6809V15.1375C32.2705 13.1845 30.6398 11.5946 28.6353 11.5946H15.6093C15.5824 11.5946 15.558 11.6014 15.5334 11.6083C15.5159 11.6132 15.4984 11.6181 15.4798 11.6206C15.4544 11.6185 15.4296 11.6133 15.4048 11.6081L15.4048 11.6081C15.3724 11.6013 15.34 11.5946 15.3065 11.5946C13.97 11.5946 12.8829 12.6536 12.8829 13.9561V35.2133C12.8829 36.2219 13.5423 37.1231 14.5329 37.458L21.8255 39.8273C22.0726 39.9015 22.3185 39.9369 22.577 39.9369C23.9135 39.9369 25.0001 38.8774 25.0001 37.5748V36.3946H28.6353C30.6392 36.3946 32.2705 34.8053 32.2705 32.8518V28.1276C32.2705 27.476 31.7286 26.9468 31.0589 26.9468ZM36.7614 17.8457L41.6087 22.5693C42.0825 23.031 42.0825 23.7772 41.6093 24.2383L36.762 28.9625C36.4155 29.3002 35.8946 29.4015 35.4414 29.2188C34.9898 29.0361 34.6939 28.6049 34.6939 28.1277V24.5849H29.8471C29.178 24.5849 28.635 24.0562 28.635 23.4041C28.635 22.752 29.178 22.2233 29.8471 22.2233H34.6939V18.6805C34.6939 18.2033 34.9893 17.772 35.4408 17.5894C35.8941 17.4061 36.4149 17.508 36.7614 17.8457Z" class="fl-mapviz-fill-black"/>
</svg>
