<svg width="49" height="49" viewBox="0 0 49 49" fill="none" xmlns="http://www.w3.org/2000/svg">
<path fill-rule="evenodd" clip-rule="evenodd" d="M24.4775 48.955C37.996 48.955 48.955 37.996 48.955 24.4775C48.955 10.9589 37.996 0 24.4775 0C10.9589 0 0 10.9589 0 24.4775C0 37.996 10.9589 48.955 24.4775 48.955ZM30.5195 17.4687C30.68 21.0079 27.9142 23.9305 24.4799 23.9305C21.1401 23.9305 18.4326 21.1687 18.4326 17.7619C18.4326 14.3259 21.1898 11.5446 24.5706 11.5953C27.7442 11.643 30.3725 14.2344 30.5195 17.4687ZM21.9137 24.3504H27.0441C31.3132 24.3504 34.7857 27.8935 34.7838 32.2482V37.8878C34.7838 38.3077 34.4495 38.6486 34.0379 38.6486H14.9171C14.5054 38.6486 14.1712 38.3077 14.1712 37.8878V32.2482C14.1712 27.8867 17.638 24.3504 21.9137 24.3504Z" fill="black"/>
</svg>
