<svg id="Layer_1" data-name="Layer 1" xmlns="http://www.w3.org/2000/svg" viewBox="0 0 22.84 33"><path d="M11.46,33a2,2,0,0,1-1.73-1L1.48,17A11.39,11.39,0,0,1,1.63,5.65,11.26,11.26,0,0,1,11.21,0h.51A11.29,11.29,0,0,1,21.3,5.65h0A11.44,11.44,0,0,1,21.45,17L13.21,32A2,2,0,0,1,11.46,33Zm0-31h-.21a9.33,9.33,0,0,0-7.9,4.66A9.43,9.43,0,0,0,3.23,16l8.23,15L19.7,16a9.46,9.46,0,0,0-.13-9.38A9.3,9.3,0,0,0,11.68,2Z" transform="translate(-0.04 0)"/><path d="M11.5,18.33a6.88,6.88,0,1,1,6.87-6.87A6.88,6.88,0,0,1,11.5,18.33Zm0-11.75a4.88,4.88,0,1,0,4.87,4.88A4.89,4.89,0,0,0,11.5,6.58Z" transform="translate(-0.04 0)"/></svg>