<svg id="Layer_1" data-name="Layer 1" xmlns="http://www.w3.org/2000/svg" viewBox="0 0 19.32 19.32"><defs><style>.cls-1{opacity:0.5;}.cls-2{fill:#fff;}.cls-3{fill:red;}</style></defs><g class="cls-1"><circle class="cls-2" cx="9.66" cy="9.66" r="9.46"/></g><path class="cls-3" d="M9.66,19.32a9.66,9.66,0,1,1,9.66-9.66A9.67,9.67,0,0,1,9.66,19.32ZM9.66.39a9.27,9.27,0,1,0,9.27,9.27A9.28,9.28,0,0,0,9.66.39Z"/><path d="M13.54,5.38h0A4.47,4.47,0,0,0,9.76,3.16h-.2A4.41,4.41,0,0,0,5.79,5.38a4.46,4.46,0,0,0-.06,4.47L9,15.76a.79.79,0,0,0,1.37,0l3.24-5.91A4.49,4.49,0,0,0,13.54,5.38ZM9.66,4h.09a3.65,3.65,0,0,1,3.1,1.83,3.72,3.72,0,0,1,.06,3.68L9.66,15.37,6.42,9.46A3.7,3.7,0,0,1,9.58,4Z"/><path class="cls-3" d="M12.85,5.78A3.65,3.65,0,0,0,9.75,4H9.58A3.71,3.71,0,0,0,6.42,9.46l3.24,5.91,3.25-5.91A3.72,3.72,0,0,0,12.85,5.78ZM9.67,10A2.32,2.32,0,1,1,12,7.66h0A2.31,2.31,0,0,1,9.67,10Z"/><circle cx="9.67" cy="7.67" r="2.31"/></svg>