<svg xmlns="http://www.w3.org/2000/svg" viewBox="0 0 9 13" opacity="0.6"><path d="M8.38,2.2h0A4.46,4.46,0,0,0,4.6,0H4.4A4.41,4.41,0,0,0,.63,2.2,4.46,4.46,0,0,0,.57,6.67l3.25,5.9a.79.79,0,0,0,1.06.31h0a.72.72,0,0,0,.3-.3l3.25-5.9A4.51,4.51,0,0,0,8.38,2.2ZM4.5.76h.09A3.63,3.63,0,0,1,7.69,2.6a3.7,3.7,0,0,1,.06,3.67L4.5,12.18,1.26,6.27a3.7,3.7,0,0,1,1.42-5A3.66,3.66,0,0,1,4.42.76Z"/><path d="M7.69,2.6A3.63,3.63,0,0,0,4.59.76H4.42A3.72,3.72,0,0,0,.79,4.55a3.85,3.85,0,0,0,.47,1.72L4.5,12.18,7.75,6.27A3.7,3.7,0,0,0,7.69,2.6ZM4.52,6.8a2.32,2.32,0,1,1-.3-4.63h.3A2.3,2.3,0,0,1,6.83,4.48h0A2.32,2.32,0,0,1,4.52,6.8Z" class="fl-mapviz-fill-red"/><circle cx="4.44" cy="4.48" r="2.39"/></svg>
