<svg id="Layer_1" data-name="Layer 1" xmlns="http://www.w3.org/2000/svg" viewBox="0 0 9 13"><defs><style>.cls-1{fill:red;}</style></defs><path d="M8.38,2.2h0A4.47,4.47,0,0,0,4.6,0H4.4A4.42,4.42,0,0,0,.63,2.2,4.46,4.46,0,0,0,.57,6.67l3.25,5.9a.78.78,0,0,0,1.07.3.72.72,0,0,0,.3-.3l3.25-5.9A4.51,4.51,0,0,0,8.38,2.2ZM4.5.76h.09A3.64,3.64,0,0,1,7.69,2.6a3.7,3.7,0,0,1,.06,3.67L4.5,12.18,1.26,6.27A3.7,3.7,0,0,1,4.42.76Z"/><path class="cls-1" d="M7.69,2.6A3.64,3.64,0,0,0,4.59.76H4.42A3.71,3.71,0,0,0,1.26,6.27L4.5,12.18,7.75,6.27A3.7,3.7,0,0,0,7.69,2.6ZM4.52,6.8a2.32,2.32,0,1,1,0-4.63A2.31,2.31,0,0,1,6.83,4.48h0A2.32,2.32,0,0,1,4.52,6.8Z"/><circle cx="4.51" cy="4.49" r="2.31"/></svg>