<svg id="Layer_1" data-name="Layer 1" xmlns="http://www.w3.org/2000/svg" viewBox="0 0 23 33"><defs><style>.cls-1{fill:red;}</style></defs><path d="M21.41,5.65h0A11.38,11.38,0,0,0,11.76,0h-.51A11.34,11.34,0,0,0,1.6,5.65,11.3,11.3,0,0,0,1.45,17L9.76,32a2,2,0,0,0,3.5,0l8.3-15A11.37,11.37,0,0,0,21.41,5.65ZM11.5,2h.22A9.45,9.45,0,0,1,19.8,16L11.5,31,3.21,16A9.41,9.41,0,0,1,11.29,2Z"/><path class="cls-1" d="M19.66,6.66A9.37,9.37,0,0,0,11.72,2h-.43A9.43,9.43,0,0,0,3.21,16L11.5,31l8.3-15A9.39,9.39,0,0,0,19.66,6.66ZM11.54,17.32a5.88,5.88,0,1,1,5.91-5.88v0A5.89,5.89,0,0,1,11.54,17.32Z"/><ellipse cx="11.54" cy="11.46" rx="5.91" ry="5.87"/></svg>