<svg id="Layer_1" data-name="Layer 1" xmlns="http://www.w3.org/2000/svg" viewBox="0 0 10.64 14.59"><defs><style>.cls-1{fill:red;}</style></defs><path d="M9.23,3h0A4.5,4.5,0,0,0,5.42.79h-.2a4.51,4.51,0,0,0-3.86,6.7L4.63,13.4a.8.8,0,0,0,1.09.29A.92.92,0,0,0,6,13.4L9.29,7.49A4.51,4.51,0,0,0,9.23,3ZM5.32,1.58h.09A3.71,3.71,0,0,1,8.59,7.09L5.32,13,2.05,7.09A3.71,3.71,0,0,1,5.24,1.58Z"/><path class="cls-1" d="M8.54,3.41A3.7,3.7,0,0,0,5.41,1.58H5.24A3.71,3.71,0,0,0,2.1,3.41a3.67,3.67,0,0,0,0,3.68L5.32,13,8.59,7.09A3.69,3.69,0,0,0,8.54,3.41ZM5.34,7.62A2.32,2.32,0,1,1,7.67,5.3h0A2.33,2.33,0,0,1,5.34,7.62Z"/><ellipse cx="5.32" cy="5.3" rx="2.33" ry="2.31"/><path d="M5.33,14.59a1.44,1.44,0,0,1-1.25-.72L.67,7.79A5.17,5.17,0,0,1,.74,2.58,5.31,5.31,0,0,1,5.21,0h.22A5.3,5.3,0,0,1,9.91,2.59,5.19,5.19,0,0,1,10,7.79L6.57,13.86A1.34,1.34,0,0,1,6,14.4,1.44,1.44,0,0,1,5.33,14.59ZM5.43.39H5.21A4.92,4.92,0,0,0,1.08,2.78,4.78,4.78,0,0,0,1,7.59l3.41,6.09a1.09,1.09,0,0,0,1.42.38,1,1,0,0,0,.39-.39l3.4-6.08a4.76,4.76,0,0,0-.06-4.8A4.92,4.92,0,0,0,5.43.39Z"/></svg>