<svg id="Layer_1" data-name="Layer 1" xmlns="http://www.w3.org/2000/svg" viewBox="0 0 49.17 49.17"><defs><style>.cls-1{opacity:0.5;}.cls-2{fill:#fff;}.cls-3{fill:red;}</style></defs><g class="cls-1"><circle class="cls-2" cx="24.59" cy="24.59" r="24.09"/></g><path class="cls-3" d="M24.59,49.17A24.59,24.59,0,1,1,49.17,24.59,24.61,24.61,0,0,1,24.59,49.17ZM24.59,1A23.59,23.59,0,1,0,48.17,24.59,23.61,23.61,0,0,0,24.59,1Z"/><path d="M34.49,13.73h0a11.37,11.37,0,0,0-9.64-5.64h-.52a11.45,11.45,0,0,0-9.79,17l8.3,15a2,2,0,0,0,2.75.75,2,2,0,0,0,.76-.75l8.29-15A11.36,11.36,0,0,0,34.49,13.73Zm-9.91-3.65h.23a9.45,9.45,0,0,1,8.07,14l-8.3,15-8.28-15a9.42,9.42,0,0,1,8.07-14Z"/><path class="cls-3" d="M32.75,14.74a9.38,9.38,0,0,0-7.94-4.66h-.44a9.44,9.44,0,0,0-8.07,14l8.28,15,8.3-15A9.38,9.38,0,0,0,32.75,14.74ZM24.62,25.41a5.88,5.88,0,1,1,5.91-5.89v0A5.89,5.89,0,0,1,24.62,25.41Z"/><ellipse cx="24.62" cy="19.54" rx="5.91" ry="5.87"/></svg>