<svg xmlns="http://www.w3.org/2000/svg" viewBox="0 0 27 37"><path d="M23.41,7.65h0A11.41,11.41,0,0,0,13.76,2h-.51a11.46,11.46,0,0,0-9.8,17l8.31,15a2,2,0,0,0,2.72.78h0a2,2,0,0,0,.78-.78l8.3-15A11.36,11.36,0,0,0,23.41,7.65ZM13.5,4h.22A9.45,9.45,0,0,1,23,13.62v0A9.62,9.62,0,0,1,21.8,18L13.5,33,5.21,18A9.4,9.4,0,0,1,13.29,4Z"/><path d="M21.66,8.66A9.37,9.37,0,0,0,13.72,4h-.43A9.43,9.43,0,0,0,5.21,18L13.5,33l8.3-15A9.38,9.38,0,0,0,21.66,8.66ZM13.54,19.32a5.88,5.88,0,1,1,5.91-5.88h0a5.89,5.89,0,0,1-5.9,5.88h0Z" class="fl-mapviz-fill-red"/><ellipse cx="13.54" cy="13.46" rx="5.91" ry="5.87"/><path d="M13.51,37a3.67,3.67,0,0,1-3.16-1.81L1.7,19.75a13.07,13.07,0,0,1,.18-13.2A13.43,13.43,0,0,1,13.21,0h.56A13.49,13.49,0,0,1,25.14,6.57a13.13,13.13,0,0,1,.17,13.18L16.68,35.17a3.78,3.78,0,0,1-1.38,1.37A3.73,3.73,0,0,1,13.51,37Zm.25-36h-.54A12.44,12.44,0,0,0,2.74,7.06a12.08,12.08,0,0,0-.17,12.2l8.65,15.43a2.72,2.72,0,0,0,3.59,1,2.53,2.53,0,0,0,1-1l8.63-15.42a12.11,12.11,0,0,0-.16-12.18A12.53,12.53,0,0,0,13.76,1Z"/></svg>
