<svg width="51" height="65" viewBox="0 0 51 65" fill="none" xmlns="http://www.w3.org/2000/svg">
<g clip-path="url(#clip0)">
<path d="M51.0002 25.1246C51.0002 11.3651 39.7737 0.189091 25.8529 0.00310591C11.431 -0.191333 -0.368722 11.5866 0.0088146 25.7924C0.242201 34.5625 5.03519 42.2132 12.1397 46.5264C15.3539 48.4775 17.7994 51.4465 19.0916 54.9413L21.8888 62.5075C23.1158 65.8282 27.883 65.8282 29.1117 62.5075L31.9089 54.9413C33.1977 51.4533 35.6328 48.4826 38.8419 46.5382C46.1369 42.1168 51.0002 34.1804 51.0002 25.1246Z" fill="#55769F"/>
<g clip-path="url(#clip1)">
<path d="M31.3801 11.8262H28.7563C28.3565 10.7618 27.2913 10 26.0371 10C24.7829 10 23.7177 10.7618 23.3165 11.8262H20.6205C20.2553 11.8262 19.9565 12.1108 19.9565 12.4587V16.7766C19.9565 17.1245 20.2553 17.4092 20.6205 17.4092H31.3801C31.7453 17.4092 32.0441 17.1245 32.0441 16.7766V12.4587C32.0441 12.1094 31.7453 11.8262 31.3801 11.8262Z" fill="white"/>
<path d="M36.3361 14.0374H33.3023V17.5027C33.3023 18.0967 32.7914 18.5835 32.1679 18.5835H19.8321C19.2086 18.5835 18.6977 18.0967 18.6977 17.5027V14.0374H15.6639C15.2988 14.0374 15 14.322 15 14.6699V38.3688C15 38.7167 15.2988 39.0014 15.6639 39.0014H36.3361C36.7012 39.0014 37 38.7167 37 38.3688V14.6699C37 14.322 36.7012 14.0374 36.3361 14.0374ZM24.1937 22.3706H25.3484V21.2705C25.3484 20.9295 25.6413 20.6503 25.9993 20.6503C26.3572 20.6503 26.6502 20.9295 26.6502 21.2705V22.3706H27.8048C28.1628 22.3706 28.4558 22.6498 28.4558 22.9908C28.4558 23.3318 28.1628 23.611 27.8048 23.611H26.6502V24.7111C26.6502 25.0521 26.3572 25.3312 25.9993 25.3312C25.6413 25.3312 25.3484 25.0521 25.3484 24.7111V23.611H24.1937C23.8358 23.611 23.5428 23.3318 23.5428 22.9908C23.5428 22.6498 23.8358 22.3706 24.1937 22.3706ZM18.0396 28.076C18.0396 27.6126 18.4379 27.233 18.9243 27.233H27.4368C27.9232 27.233 28.3215 27.6126 28.3215 28.076C28.3215 28.5394 27.9232 28.9189 27.4368 28.9189H18.9243C18.4379 28.9176 18.0396 28.5394 18.0396 28.076ZM32.5215 36.5371H18.9243C18.4379 36.5371 18.0396 36.1576 18.0396 35.6942C18.0396 35.2308 18.4379 34.8512 18.9243 34.8512H32.5215C33.0079 34.8512 33.4062 35.2308 33.4062 35.6942C33.4062 36.1576 33.0079 36.5371 32.5215 36.5371ZM33.4062 31.8672C33.4062 32.3306 33.0079 32.7102 32.5215 32.7102H18.9243C18.4379 32.7102 18.0396 32.3306 18.0396 31.8672C18.0396 31.4038 18.4379 31.0243 18.9243 31.0243H32.5215C33.0079 31.0243 33.4062 31.4038 33.4062 31.8672Z" fill="white"/>
</g>
</g>
<defs>
<clipPath id="clip0">
<rect width="51" height="65" fill="white"/>
</clipPath>
<clipPath id="clip1">
<rect width="22" height="29" fill="white" transform="translate(15 10)"/>
</clipPath>
</defs>
</svg>
