<svg width="61" height="76" viewBox="0 0 61 76" fill="none" xmlns="http://www.w3.org/2000/svg">
<path d="M30.5005 74C28.0241 74 25.8784 72.5117 25.0302 70.2063L22.101 62.2397C20.888 58.9427 18.568 56.1175 15.5669 54.2856C7.32918 49.2565 2.26148 40.5457 2.00989 30.9841C1.80862 23.3326 4.68571 16.0781 10.1128 10.5594C15.5417 5.04065 22.7821 2 30.504 2C30.6334 2 30.7646 2 30.894 2.00178C38.4237 2.10325 45.4879 5.08515 50.782 10.3974C56.0816 15.715 59 22.7594 59 30.2328C59 35.1427 57.7079 39.9796 55.2621 44.2202C52.8918 48.3307 49.4846 51.8147 45.4124 54.2963C42.4257 56.1157 40.1129 58.9356 38.8981 62.238L35.9689 70.2045C35.1225 72.5099 32.975 74 30.5005 74Z" stroke="#465D8B" stroke-width="3" stroke-miterlimit="10"/>
<g clip-path="url(#clip0)">
<path d="M54.8618 30.4339C54.8618 17.2514 44.1059 6.54399 30.7689 6.3658C16.9517 6.17951 5.64674 17.4636 6.00844 31.0738C6.23205 39.4761 10.8241 46.806 17.6307 50.9383C20.7101 52.8076 23.053 55.6521 24.291 59.0004L26.9709 66.2494C28.1465 69.4308 32.7139 69.4308 33.891 66.2494L36.571 59.0004C37.8057 55.6586 40.1387 52.8125 43.2132 50.9496C50.2023 46.7137 54.8618 39.11 54.8618 30.4339Z" fill="#55769F"/>
<g clip-path="url(#clip1)">
<path d="M36.0642 17.6931H33.5504C33.1673 16.6734 32.1469 15.9435 30.9452 15.9435C29.7436 15.9435 28.7231 16.6734 28.3387 17.6931H25.7557C25.4059 17.6931 25.1196 17.9658 25.1196 18.2991V22.4359C25.1196 22.7693 25.4059 23.042 25.7557 23.042H36.0642C36.4141 23.042 36.7003 22.7693 36.7003 22.4359V18.2991C36.7003 17.9645 36.4141 17.6931 36.0642 17.6931Z" fill="white"/>
<path d="M40.8125 19.8116H37.906V23.1317C37.906 23.7008 37.4165 24.1672 36.8191 24.1672H25.0006C24.4032 24.1672 23.9137 23.7008 23.9137 23.1317V19.8116H21.0072C20.6573 19.8116 20.3711 20.0844 20.3711 20.4177V43.1229C20.3711 43.4562 20.6573 43.7289 21.0072 43.7289H40.8125C41.1624 43.7289 41.4486 43.4562 41.4486 43.1229V20.4177C41.4486 20.0844 41.1624 19.8116 40.8125 19.8116ZM29.1793 27.7955H30.2855V26.7415C30.2855 26.4148 30.5662 26.1473 30.9092 26.1473C31.2521 26.1473 31.5328 26.4148 31.5328 26.7415V27.7955H32.639C32.9819 27.7955 33.2626 28.0629 33.2626 28.3897C33.2626 28.7164 32.9819 28.9838 32.639 28.9838H31.5328V30.0378C31.5328 30.3645 31.2521 30.632 30.9092 30.632C30.5662 30.632 30.2855 30.3645 30.2855 30.0378V28.9838H29.1793C28.8364 28.9838 28.5557 28.7164 28.5557 28.3897C28.5557 28.0629 28.8364 27.7955 29.1793 27.7955ZM23.2832 33.2616C23.2832 32.8177 23.6648 32.454 24.1308 32.454H32.2864C32.7524 32.454 33.134 32.8177 33.134 33.2616C33.134 33.7056 32.7524 34.0692 32.2864 34.0692H24.1308C23.6648 34.0679 23.2832 33.7056 23.2832 33.2616ZM37.1579 41.368H24.1308C23.6648 41.368 23.2832 41.0044 23.2832 40.5604C23.2832 40.1164 23.6648 39.7528 24.1308 39.7528H37.1579C37.6239 39.7528 38.0055 40.1164 38.0055 40.5604C38.0055 41.0044 37.6239 41.368 37.1579 41.368ZM38.0055 36.8939C38.0055 37.3379 37.6239 37.7015 37.1579 37.7015H24.1308C23.6648 37.7015 23.2832 37.3379 23.2832 36.8939C23.2832 36.4499 23.6648 36.0863 24.1308 36.0863H37.1579C37.6239 36.0863 38.0055 36.4499 38.0055 36.8939Z" fill="white"/>
</g>
</g>
<defs>
<clipPath id="clip0">
<rect width="48.8615" height="62.2745" fill="white" transform="translate(6 6.36279)"/>
</clipPath>
<clipPath id="clip1">
<rect width="21.0775" height="27.784" fill="white" transform="translate(20.3711 15.9435)"/>
</clipPath>
</defs>
</svg>
