<svg width="108" height="108" viewBox="0 0 108 108" fill="none" xmlns="http://www.w3.org/2000/svg">
<circle cx="54" cy="54" r="52.5" fill="#FBDC90" fill-opacity="0.8" stroke="#55769F" stroke-width="3"/>
<path d="M79.0002 51.1248C79.0002 37.3653 67.7737 26.1893 53.8529 26.0034C39.431 25.8089 27.6313 37.5868 28.0088 51.7927C28.2422 60.5627 33.0352 68.2134 40.1397 72.5266C43.3539 74.4778 45.7994 77.4468 47.0916 80.9416L49.8888 88.5078C51.1158 91.8285 55.883 91.8285 57.1117 88.5078L59.9089 80.9416C61.1977 77.4535 63.6328 74.4828 66.8419 72.5384C74.1369 68.1171 79.0002 60.1806 79.0002 51.1248Z" fill="#55769F"/>
<g clip-path="url(#clip0)">
<path d="M59.3803 37.8262H56.7564C56.3566 36.7618 55.2914 36 54.0372 36C52.783 36 51.7179 36.7618 51.3166 37.8262H48.6206C48.2554 37.8262 47.9567 38.1108 47.9567 38.4587V42.7766C47.9567 43.1245 48.2554 43.4092 48.6206 43.4092H59.3803C59.7454 43.4092 60.0442 43.1245 60.0442 42.7766V38.4587C60.0442 38.1094 59.7454 37.8262 59.3803 37.8262Z" fill="white"/>
<path d="M64.3361 40.0374H61.3023V43.5027C61.3023 44.0967 60.7914 44.5835 60.1679 44.5835H47.8321C47.2086 44.5835 46.6977 44.0967 46.6977 43.5027V40.0374H43.6639C43.2988 40.0374 43 40.322 43 40.6699V64.3688C43 64.7167 43.2988 65.0014 43.6639 65.0014H64.3361C64.7012 65.0014 65 64.7167 65 64.3688V40.6699C65 40.322 64.7012 40.0374 64.3361 40.0374ZM52.1937 48.3706H53.3484V47.2705C53.3484 46.9295 53.6413 46.6503 53.9993 46.6503C54.3572 46.6503 54.6502 46.9295 54.6502 47.2705V48.3706H55.8048C56.1628 48.3706 56.4558 48.6498 56.4558 48.9908C56.4558 49.3318 56.1628 49.611 55.8048 49.611H54.6502V50.7111C54.6502 51.0521 54.3572 51.3312 53.9993 51.3312C53.6413 51.3312 53.3484 51.0521 53.3484 50.7111V49.611H52.1937C51.8358 49.611 51.5428 49.3318 51.5428 48.9908C51.5428 48.6498 51.8358 48.3706 52.1937 48.3706ZM46.0396 54.076C46.0396 53.6126 46.4379 53.233 46.9243 53.233H55.4368C55.9232 53.233 56.3215 53.6126 56.3215 54.076C56.3215 54.5394 55.9232 54.9189 55.4368 54.9189H46.9243C46.4379 54.9176 46.0396 54.5394 46.0396 54.076ZM60.5215 62.5371H46.9243C46.4379 62.5371 46.0396 62.1576 46.0396 61.6942C46.0396 61.2308 46.4379 60.8512 46.9243 60.8512H60.5215C61.0079 60.8512 61.4062 61.2308 61.4062 61.6942C61.4062 62.1576 61.0079 62.5371 60.5215 62.5371ZM61.4062 57.8672C61.4062 58.3306 61.0079 58.7102 60.5215 58.7102H46.9243C46.4379 58.7102 46.0396 58.3306 46.0396 57.8672C46.0396 57.4038 46.4379 57.0243 46.9243 57.0243H60.5215C61.0079 57.0243 61.4062 57.4038 61.4062 57.8672Z" fill="white"/>
</g>
<defs>
<clipPath id="clip0">
<rect width="22" height="29" fill="white" transform="translate(43 36)"/>
</clipPath>
</defs>
</svg>
