<svg width="9" height="13" viewBox="0 0 9 13" fill="none" xmlns="http://www.w3.org/2000/svg">
<mask id="path-1-inside-1" fill="white">
<path d="M8.37477 2.22619C7.58052 0.864487 6.16969 0.0326904 4.60063 0.000952148C4.53366 -0.000317383 4.46617 -0.000317383 4.39919 0.000952148C2.83039 0.0326904 1.41956 0.864487 0.625059 2.22619C-0.186825 3.61785 -0.209065 5.28956 0.565753 6.69798L3.81124 12.5985C3.81278 12.601 3.81406 12.6038 3.81559 12.6064C3.95849 12.8529 4.21412 13.0002 4.49991 13.0002C4.78571 13.0002 5.04134 12.8529 5.18424 12.6064C5.18577 12.6038 5.1873 12.6013 5.18858 12.5985L8.43433 6.69798C9.20889 5.28956 9.18665 3.61785 8.37477 2.22619Z"/>
</mask>
<path d="M8.37477 2.22619C7.58052 0.864487 6.16969 0.0326904 4.60063 0.000952148C4.53366 -0.000317383 4.46617 -0.000317383 4.39919 0.000952148C2.83039 0.0326904 1.41956 0.864487 0.625059 2.22619C-0.186825 3.61785 -0.209065 5.28956 0.565753 6.69798L3.81124 12.5985C3.81278 12.601 3.81406 12.6038 3.81559 12.6064C3.95849 12.8529 4.21412 13.0002 4.49991 13.0002C4.78571 13.0002 5.04134 12.8529 5.18424 12.6064C5.18577 12.6038 5.1873 12.6013 5.18858 12.5985L8.43433 6.69798C9.20889 5.28956 9.18665 3.61785 8.37477 2.22619Z" fill="#FF0000" fill-opacity="0.4" stroke="black" stroke-opacity="0.4" mask="url(#path-1-inside-1)"/>
<path d="M4.5007 5.88965C5.5172 5.88965 6.34124 5.07117 6.34124 4.06152C6.34124 3.05188 5.5172 2.2334 4.5007 2.2334C3.4842 2.2334 2.66016 3.05188 2.66016 4.06152C2.66016 5.07117 3.4842 5.88965 4.5007 5.88965Z" fill="black" fill-opacity="0.5"/>
</svg>
