<svg width="25" height="36" viewBox="0 0 25 36" fill="none" xmlns="http://www.w3.org/2000/svg">
<path d="M22.7594 6.41665L22.7594 6.41669C24.9194 10.1191 24.9781 14.5613 22.9182 18.307C22.9182 18.307 22.9182 18.307 22.9181 18.307L13.9301 34.6467L13.9217 34.6619C13.6152 35.1881 13.0733 35.5 12.4611 35.5C11.8488 35.5 11.3068 35.188 11.0003 34.6616L10.9988 34.6587L10.996 34.6535C10.9942 34.6502 10.992 34.6461 10.9892 34.6414L2.00478 18.307L2.00476 18.307C-0.0558886 14.5613 0.0028103 10.1191 2.16277 6.41671C4.27555 2.79561 8.02297 0.586997 12.192 0.502541C12.3709 0.499153 12.5513 0.499153 12.7302 0.502541C16.9 0.586992 20.6474 2.79562 22.7594 6.41665ZM11.0024 34.6654L11.0019 34.6645C11.0025 34.6657 11.003 34.6666 11.003 34.6666L11.0024 34.6654Z" fill="#FF0000" stroke="black"/>
<path d="M12.4633 16.3094C15.2782 16.3094 17.5601 14.0429 17.5601 11.247C17.5601 8.4511 15.2782 6.18457 12.4633 6.18457C9.64838 6.18457 7.36646 8.4511 7.36646 11.247C7.36646 14.0429 9.64838 16.3094 12.4633 16.3094Z" fill="black"/>
</svg>
