<svg width="61" height="61" viewBox="0 0 61 61" fill="none" xmlns="http://www.w3.org/2000/svg">
<circle cx="30.5" cy="30.5" r="29.5" fill="white" fill-opacity="0.8" stroke="#FF0000" stroke-width="2"/>
<path d="M41.7594 20.4167L41.7594 20.4167C43.9194 24.1191 43.9781 28.5613 41.9182 32.307C41.9182 32.307 41.9182 32.307 41.9181 32.307L32.9301 48.6467L32.9217 48.6619C32.6152 49.1881 32.0733 49.5 31.4611 49.5C30.8488 49.5 30.3068 49.188 30.0003 48.6616L29.9988 48.6587L29.996 48.6535C29.9942 48.6502 29.992 48.6461 29.9892 48.6414L21.0048 32.307L21.0048 32.307C18.9441 28.5613 19.0028 24.1191 21.1628 20.4167C23.2756 16.7956 27.023 14.587 31.192 14.5025C31.3709 14.4992 31.5513 14.4992 31.7302 14.5025C35.9 14.587 39.6474 16.7956 41.7594 20.4167ZM30.0024 48.6654L30.0019 48.6645C30.0025 48.6657 30.003 48.6666 30.003 48.6666L30.0024 48.6654Z" fill="#FF0000" stroke="black"/>
<path d="M41.7594 20.4167L41.7594 20.4167C43.9194 24.1191 43.9781 28.5613 41.9182 32.307C41.9182 32.307 41.9182 32.307 41.9181 32.307L32.9301 48.6467L32.9217 48.6619C32.6152 49.1881 32.0733 49.5 31.4611 49.5C30.8488 49.5 30.3068 49.188 30.0003 48.6616L29.9988 48.6587L29.996 48.6535C29.9942 48.6502 29.992 48.6461 29.9892 48.6414L21.0048 32.307L21.0048 32.307C18.9441 28.5613 19.0028 24.1191 21.1628 20.4167C23.2756 16.7956 27.023 14.587 31.192 14.5025C31.3709 14.4992 31.5513 14.4992 31.7302 14.5025C35.9 14.587 39.6474 16.7956 41.7594 20.4167ZM30.0024 48.6654L30.0019 48.6645C30.0025 48.6657 30.003 48.6666 30.003 48.6666L30.0024 48.6654Z" fill="#FF0000" stroke="black"/>
<path d="M31.4633 30.3094C34.2782 30.3094 36.5601 28.0429 36.5601 25.247C36.5601 22.4511 34.2782 20.1846 31.4633 20.1846C28.6484 20.1846 26.3665 22.4511 26.3665 25.247C26.3665 28.0429 28.6484 30.3094 31.4633 30.3094Z" fill="black"/>
</svg>
