<svg width="33" height="46" viewBox="0 0 33 46" fill="none" xmlns="http://www.w3.org/2000/svg">
<path d="M29.8521 8.39444L29.8522 8.39451C32.6423 13.0098 32.7175 18.5376 30.0576 23.205C30.0576 23.205 30.0576 23.205 30.0575 23.2051L18.1563 44.0835L18.1476 44.0988C17.8097 44.6557 17.2059 45 16.4999 45C15.7944 45 15.191 44.6562 14.853 44.1L14.8493 44.0933C14.8464 44.0881 14.8426 44.0816 14.8382 44.0741L2.94324 23.205L2.9432 23.205C0.282424 18.5376 0.357506 13.0098 3.14766 8.39456C5.87858 3.87782 10.7313 1.10917 16.1495 1.00319C16.3825 0.998936 16.6174 0.998936 16.8504 1.00319C22.2696 1.10919 27.1222 3.87788 29.8521 8.39444ZM18.1615 44.076L18.1601 44.0783Z" stroke="black" stroke-width="2"/>
<path d="M26.7594 10.4167L26.7594 10.4167C28.9194 14.1191 28.9781 18.5613 26.9182 22.307C26.9182 22.307 26.9182 22.307 26.9181 22.307L17.9301 38.6467L17.9217 38.6619C17.6152 39.1881 17.0733 39.5 16.4611 39.5C15.8488 39.5 15.3068 39.188 15.0003 38.6616L14.9988 38.6587L14.996 38.6535C14.9942 38.6502 14.992 38.6461 14.9892 38.6414L6.00478 22.307L6.00476 22.307C3.94411 18.5613 4.00281 14.1191 6.16277 10.4167C8.27555 6.79561 12.023 4.587 16.192 4.50254C16.3709 4.49915 16.5513 4.49915 16.7302 4.50254C20.9 4.58699 24.6474 6.79562 26.7594 10.4167ZM15.0024 38.6654L15.0019 38.6645C15.0025 38.6657 15.003 38.6666 15.003 38.6666L15.0024 38.6654Z" fill="#FF0000" stroke="black"/>
<path d="M26.7594 10.4167L26.7594 10.4167C28.9194 14.1191 28.9781 18.5613 26.9182 22.307C26.9182 22.307 26.9182 22.307 26.9181 22.307L17.9301 38.6467L17.9217 38.6619C17.6152 39.1881 17.0733 39.5 16.4611 39.5C15.8488 39.5 15.3068 39.188 15.0003 38.6616L14.9988 38.6587L14.996 38.6535C14.9942 38.6502 14.992 38.6461 14.9892 38.6414L6.00478 22.307L6.00476 22.307C3.94411 18.5613 4.00281 14.1191 6.16277 10.4167C8.27555 6.79561 12.023 4.587 16.192 4.50254C16.3709 4.49915 16.5513 4.49915 16.7302 4.50254C20.9 4.58699 24.6474 6.79562 26.7594 10.4167ZM15.0024 38.6654L15.0019 38.6645C15.0025 38.6657 15.003 38.6666 15.003 38.6666L15.0024 38.6654Z" fill="#FF0000" stroke="black"/>
<path d="M16.4633 20.3094C19.2782 20.3094 21.5601 18.0429 21.5601 15.247C21.5601 12.4511 19.2782 10.1846 16.4633 10.1846C13.6484 10.1846 11.3665 12.4511 11.3665 15.247C11.3665 18.0429 13.6484 20.3094 16.4633 20.3094Z" fill="black"/>
</svg>
