<svg width="49" height="49" viewBox="0 0 49 49" fill="none" xmlns="http://www.w3.org/2000/svg">
<path fill-rule="evenodd" clip-rule="evenodd" d="M24.4775 48.955C37.996 48.955 48.955 37.996 48.955 24.4775C48.955 10.9589 37.996 0 24.4775 0C10.9589 0 0 10.9589 0 24.4775C0 37.996 10.9589 48.955 24.4775 48.955ZM31.44 21.6256C31.5581 21.5922 31.6761 21.5752 31.7912 21.5752C32.4217 21.5752 32.8795 22.0709 32.8793 22.7536V23.5627C32.8793 24.3596 32.2489 25.0082 31.4743 25.0082H31.3045L31.5282 25.5686C31.8928 26.4823 32.1896 28.0295 32.1896 29.0174V35.9148C32.1896 36.7118 31.5592 37.3603 30.7846 37.3603H28.9498C28.1751 37.3603 27.5447 36.7118 27.5447 35.9148V34.1924H11.7576V35.9148C11.7576 36.7118 11.1272 37.3603 10.3525 37.3603H8.51743C7.74274 37.3603 7.11235 36.7118 7.11235 35.9148V29.0173C7.11235 28.0292 7.40918 26.482 7.77383 25.5684L7.99748 25.008H7.8465C7.07182 25.008 6.44142 24.3595 6.44142 23.5625V22.7534C6.44142 22.0708 6.89907 21.5751 7.52973 21.5751C7.64476 21.5751 7.76281 21.5921 7.88073 21.6254L9.19846 21.9988L10.582 18.5316C10.9745 17.548 12.1345 16.7477 13.1682 16.7477H26.1342C27.1677 16.7477 28.3279 17.548 28.7205 18.5316L30.1058 22.0037L31.44 21.6256ZM12.3015 18.9714L10.2057 24.2231C9.97105 24.8114 10.2847 25.2928 10.903 25.2929H28.3995C29.0177 25.2929 29.3313 24.8114 29.0967 24.2231L27.0009 18.9714C26.7661 18.3829 26.0682 17.9016 25.45 17.9016H13.8523C13.2341 17.9016 12.5363 18.3831 12.3015 18.9714ZM14.3222 31.4439C14.6311 31.4439 14.8841 31.1839 14.8841 30.8658V28.9003C14.8841 28.5824 14.6311 28.3222 14.3222 28.3222H10.3409C10.0318 28.3222 9.77888 28.5824 9.77888 28.9003V30.8658C9.77888 31.1838 10.0318 31.4439 10.3409 31.4439H14.3222ZM28.9238 31.4439C29.2327 31.4439 29.4857 31.1839 29.4857 30.8658V28.9003C29.4857 28.5824 29.2327 28.3222 28.9238 28.3222H24.9426C24.6337 28.3222 24.3806 28.5824 24.3806 28.9003V30.8658C24.3806 31.1838 24.6337 31.4439 24.9426 31.4439H28.9238ZM40.3781 11.5946H33.7335C32.7659 11.5946 31.9788 12.3618 31.9788 13.3046V19.7804C31.9788 20.7234 32.7661 21.4906 33.7335 21.4906H36.4009V36.0249C36.4009 36.3775 36.694 36.6631 37.0558 36.6631C37.4175 36.6631 37.7106 36.3775 37.7106 36.0249V21.4908H40.3781C41.3457 21.4908 42.1328 20.7235 42.1328 19.7806V13.3048C42.1328 12.3618 41.3457 11.5946 40.3781 11.5946ZM38.8732 16.9639C38.491 17.2992 37.9281 17.4692 37.2002 17.4692H36.238C36.1225 17.4692 36.0285 17.561 36.0285 17.6735V19.2548C36.0285 19.4266 35.8851 19.5663 35.7088 19.5663H34.9801C34.8037 19.5663 34.6604 19.4265 34.6604 19.2548V13.8309C34.6604 13.659 34.8038 13.5192 34.9801 13.5192H36.8157C38.0317 13.5192 38.4857 13.6978 38.8587 14.0063C39.2521 14.3316 39.4514 14.8299 39.4514 15.4876C39.4513 16.1303 39.2569 16.6268 38.8732 16.9639ZM36.898 14.6316C37.3399 14.6316 37.6541 14.6979 37.8317 14.8286C38.0044 14.956 38.092 15.1777 38.092 15.4876C38.092 15.7946 38.0044 16.0149 37.8317 16.1423C37.6877 16.2482 37.2955 16.3036 37.1565 16.316C37.0134 16.3289 36.7787 16.3393 36.6335 16.3393H36.2381C36.1226 16.3393 36.0285 16.2477 36.0285 16.1352V14.8356C36.0285 14.7232 36.1226 14.6316 36.2381 14.6316H36.898Z" class="fl-mapviz-fill-black"/>
</svg>
