<svg width="26" height="26" viewBox="0 0 26 26" fill="none" xmlns="http://www.w3.org/2000/svg">
<mask id="path-1-inside-1" fill="white">
<path fill-rule="evenodd" clip-rule="evenodd" d="M8.38083 13.4318H6.36918C6.35057 13.6383 6.34106 13.8474 6.34106 14.0587C6.34106 17.8672 9.42846 20.9546 13.237 20.9546C17.0454 20.9546 20.1328 17.8672 20.1328 14.0587C20.1328 10.3199 17.1574 7.27607 13.4453 7.16589V9.16716C16.0526 9.27634 18.1328 11.4246 18.1328 14.0587C18.1328 16.7626 15.9409 18.9546 13.237 18.9546C10.533 18.9546 8.34106 16.7626 8.34106 14.0587C8.34106 13.8463 8.35459 13.637 8.38083 13.4318Z"/>
</mask>
<path fill-rule="evenodd" clip-rule="evenodd" d="M8.38083 13.4318H6.36918C6.35057 13.6383 6.34106 13.8474 6.34106 14.0587C6.34106 17.8672 9.42846 20.9546 13.237 20.9546C17.0454 20.9546 20.1328 17.8672 20.1328 14.0587C20.1328 10.3199 17.1574 7.27607 13.4453 7.16589V9.16716C16.0526 9.27634 18.1328 11.4246 18.1328 14.0587C18.1328 16.7626 15.9409 18.9546 13.237 18.9546C10.533 18.9546 8.34106 16.7626 8.34106 14.0587C8.34106 13.8463 8.35459 13.637 8.38083 13.4318Z" fill="#C4C4C4"/>
<path d="M8.38083 13.4318L10.3647 13.6853L10.6527 11.4318H8.38083V13.4318ZM6.36918 13.4318V11.4318H4.54131L4.37725 13.2523L6.36918 13.4318ZM13.237 20.9546L13.237 18.9546H13.237V20.9546ZM20.1328 14.0587L22.1328 14.0587V14.0587H20.1328ZM13.4453 7.16589L13.5047 5.16677L11.4453 5.10565V7.16589H13.4453ZM13.4453 9.16716H11.4453V11.0852L13.3617 11.1654L13.4453 9.16716ZM18.1328 14.0587L20.1328 14.0587V14.0587H18.1328ZM13.237 18.9546L13.237 16.9546H13.237V18.9546ZM8.34106 14.0587L10.3411 14.0587V14.0587H8.34106ZM8.38083 11.4318H6.36918V15.4318H8.38083V11.4318ZM8.34106 14.0587C8.34106 13.9074 8.34787 13.7582 8.36111 13.6113L4.37725 13.2523C4.35327 13.5184 4.34106 13.7874 4.34106 14.0587H8.34106ZM13.237 18.9546C10.533 18.9546 8.34106 16.7626 8.34106 14.0587H4.34106C4.34106 18.9718 8.32389 22.9546 13.237 22.9546V18.9546ZM18.1328 14.0587C18.1328 16.7626 15.9409 18.9546 13.237 18.9546L13.237 22.9546C18.15 22.9546 22.1328 18.9718 22.1328 14.0587L18.1328 14.0587ZM13.386 9.16501C16.0203 9.2432 18.1328 11.4046 18.1328 14.0587H22.1328C22.1328 9.23521 18.2945 5.30893 13.5047 5.16677L13.386 9.16501ZM11.4453 7.16589V9.16716H15.4453V7.16589H11.4453ZM20.1328 14.0587C20.1328 10.348 17.2028 7.32275 13.529 7.16891L13.3617 11.1654C14.9024 11.2299 16.1328 12.5011 16.1328 14.0587H20.1328ZM13.237 20.9546C17.0454 20.9546 20.1328 17.8672 20.1328 14.0587L16.1328 14.0587C16.1328 15.658 14.8363 16.9546 13.237 16.9546L13.237 20.9546ZM6.34106 14.0587C6.34106 17.8672 9.42846 20.9546 13.237 20.9546V16.9546C11.6376 16.9546 10.3411 15.658 10.3411 14.0587L6.34106 14.0587ZM6.39697 13.1782C6.36001 13.4674 6.34106 13.7613 6.34106 14.0587H10.3411C10.3411 13.9313 10.3492 13.8067 10.3647 13.6853L6.39697 13.1782Z" fill="black" mask="url(#path-1-inside-1)"/>
<path d="M10.4849 7.82993L13.5862 5.44252L13.5862 10.2173L10.4849 7.82993Z" fill="black"/>
<circle cx="13" cy="13" r="12" stroke="black" stroke-width="2"/>
</svg>
