<svg width="23" height="22" viewBox="0 0 23 22" fill="none" xmlns="http://www.w3.org/2000/svg">
<path d="M8.7328 11.6616C7.92456 10.8837 7.92456 9.6226 8.7328 8.84475C9.54105 8.0669 10.8515 8.0669 11.6597 8.84475L20.1097 16.977C20.918 17.7548 20.918 19.016 20.1097 19.7938C19.3015 20.5717 17.991 20.5717 17.1828 19.7938L8.7328 11.6616Z" class="fill-white stroke-black"/>
<path d="M14.3645 7.25653C14.3645 10.7316 11.4318 13.5811 7.77331 13.5811C4.11487 13.5811 1.18213 10.7316 1.18213 7.25653C1.18213 3.78148 4.11487 0.932007 7.77331 0.932007C11.4318 0.932007 14.3645 3.78148 14.3645 7.25653Z" class="fill-white stroke-black"/>
<path d="M3.21598 7.362C3.51864 4.52675 5.4096 2.81232 8.88893 2.81232" class="stroke-black"/>
</svg>
