<svg width="21" height="22" viewBox="0 0 21 22" fill="none" xmlns="http://www.w3.org/2000/svg">
<path d="M2.2729 1H18.7428C19.4431 1 20 1.53672 20 2.23533V15.7777C20 16.4763 19.4431 17.0239 18.7428 17.0239H14.445C14.0948 17.0239 13.8362 17.3287 13.8362 17.6777V20.1592C13.8362 20.7401 13.4881 21 13.1564 21C12.9625 21 12.7564 20.9191 12.5578 20.7585L8.59782 17.5613C8.24973 17.2804 7.54742 17.0246 7.09968 17.0246H2.2729C1.57195 17.0246 1 16.477 1 15.7784V2.23533C1 1.53672 1.57195 1 2.2729 1Z" fill="black" stroke="black" stroke-width="2" stroke-miterlimit="10"/>
<path d="M9.195 7.095V15H10.575V7.095H9.195ZM9.9 3.3C9.61 3.3 9.375 3.39 9.195 3.57C9.015 3.75 8.925 3.975 8.925 4.245C8.925 4.515 9.015 4.74 9.195 4.92C9.375 5.09 9.61 5.175 9.9 5.175C10.18 5.175 10.41 5.09 10.59 4.92C10.77 4.74 10.86 4.515 10.86 4.245C10.86 3.975 10.77 3.75 10.59 3.57C10.41 3.39 10.18 3.3 9.9 3.3Z" fill="white"/>
</svg>
