<svg width="33" height="46" viewBox="0 0 33 46" fill="none" xmlns="http://www.w3.org/2000/svg">
<mask id="path-1-inside-1" class="fl-mapviz-fill-white">
<path d="M30.708 7.87716C27.7957 3.05891 22.6226 0.115672 16.8692 0.00336909C16.6237 -0.00112303 16.3762 -0.00112303 16.1306 0.00336909C10.3782 0.115672 5.20513 3.05891 2.29192 7.87716C-0.685035 12.8014 -0.766583 18.7166 2.07446 23.7002L13.9748 44.5787C13.9804 44.5877 13.9851 44.5976 13.9907 44.6065C14.5147 45.4789 15.452 46 16.4999 46C17.5479 46 18.4852 45.4789 19.0092 44.6065C19.0148 44.5976 19.0204 44.5886 19.0251 44.5787L30.9264 23.7002C33.7665 18.7166 33.6849 12.8014 30.708 7.87716Z"/>
</mask>
<path d="M30.708 7.87716C27.7957 3.05891 22.6226 0.115672 16.8692 0.00336909C16.6237 -0.00112303 16.3762 -0.00112303 16.1306 0.00336909C10.3782 0.115672 5.20513 3.05891 2.29192 7.87716C-0.685035 12.8014 -0.766583 18.7166 2.07446 23.7002L13.9748 44.5787C13.9804 44.5877 13.9851 44.5976 13.9907 44.6065C14.5147 45.4789 15.452 46 16.4999 46C17.5479 46 18.4852 45.4789 19.0092 44.6065C19.0148 44.5976 19.0204 44.5886 19.0251 44.5787L30.9264 23.7002C33.7665 18.7166 33.6849 12.8014 30.708 7.87716Z" class="fl-mapviz-stroke-black" stroke-width="4" mask="url(#path-1-inside-1)"/>
</svg>
