<svg id="Layer_1" data-name="Layer 1" xmlns="http://www.w3.org/2000/svg" viewBox="0 0 48.96 48.96" fill="none"><path fill-rule="evenodd" clip-rule="evenodd" d="M49,24.48A24.48,24.48,0,1,1,24.48,0,24.48,24.48,0,0,1,49,24.48ZM37.36,17.6h1.21a2,2,0,1,0-1.21,0Zm4.43,5.52h0l.68,1.77a.71.71,0,0,1-.38.9h0a.82.82,0,0,1-.29.07.72.72,0,0,1-.66-.44l-.43-1c-.14-.33-.28-.67-.43-1v10a1,1,0,0,1-2,0V27.22h-.7V33.4a1,1,0,0,1-1,1,1.26,1.26,0,0,1-.27,0,.86.86,0,0,0,0-.16V26.34a1.56,1.56,0,0,0,1.54.14h0a1.56,1.56,0,0,0,.83-2c-.13-.34-.31-.8-.51-1.34h0l-.21-.54c-.6-1.56-1.34-3.47-1.61-4.22h3.21a1.08,1.08,0,0,1,.35.2,1.36,1.36,0,0,1,.43.66h0c.2.61.89,2.38,1.47,3.87Zm-9.15-6.33h.6a2.16,2.16,0,1,0-.6,0Zm4.86,9a1,1,0,0,1-.32.07.79.79,0,0,1-.73-.48L36,24.25c-.15-.37-.31-.74-.47-1.1V34.2a.53.53,0,0,1,0,.13.94.94,0,0,1-.13.41,1.12,1.12,0,0,1-2.1-.54V27.36h-.78V34.2a1.12,1.12,0,0,1-1.12,1.12l-.18,0V26.9a1.69,1.69,0,0,0,1.13.43,1.6,1.6,0,0,0,.68-.15h0a1.69,1.69,0,0,0,.69-.57,1.82,1.82,0,0,0,.2-.36,1.7,1.7,0,0,0,.09-.39,1.59,1.59,0,0,0-.09-.8c-.09-.23-.2-.5-.32-.82,0-.08-.07-.17-.1-.26h0c0-.09-.07-.19-.11-.28s-.14-.35-.21-.54a2.77,2.77,0,0,0-.1-.26C32.34,21,31.45,18.72,31.19,18h0a2.79,2.79,0,0,0-.15-.38h3.65a1.55,1.55,0,0,1,.39.23,1.58,1.58,0,0,1,.25.28,1.41,1.41,0,0,1,.19.36l0,.07h0v0l.12.33c.31.88,1,2.59,1.54,4h0l.72,1.87a.78.78,0,0,1-.42,1h0Zm-7.74-11a2.45,2.45,0,0,0-1.34-3.2,2.48,2.48,0,0,0-3.22,1.33,2.45,2.45,0,0,0,1.34,3.2A2.47,2.47,0,0,0,29.76,14.74Zm2.91,11.73a.9.9,0,0,1-.36.08.91.91,0,0,1-.84-.55l-.54-1.26v0c-.18-.41-.35-.83-.53-1.25v12.6a1.28,1.28,0,0,1-2.56,0V28.28H27v7.79a1.27,1.27,0,0,1-1.28,1.27h-.15v-10a1.79,1.79,0,0,0,1.35.6,1.87,1.87,0,0,0,.73-.15h0a1.75,1.75,0,0,0,1-1.19,1.34,1.34,0,0,0,.06-.4,1.69,1.69,0,0,0,0-.38,2.86,2.86,0,0,0-.07-.28L28,24.18,28,24l-.14-.36c-.06-.16-.13-.32-.19-.49,0,0,0,0,0,0l0-.05h0c-.79-2.05-1.76-4.55-2.05-5.39h0a3,3,0,0,0-.23-.53h4.15a1.83,1.83,0,0,1,.44.26l0,0h0a1.39,1.39,0,0,1,.26.29,2,2,0,0,1,.2.38l.05.13h0c.27.8,1.21,3.21,1.95,5.14l.34.88.09.24.12.31c.06.16.12.3.17.44l0,.11a.87.87,0,0,1,0,.55.86.86,0,0,1-.2.36.84.84,0,0,1-.3.22ZM21.5,15.74a2.73,2.73,0,1,0-2.62-3.51,4,4,0,0,1-.12.77h0A2.74,2.74,0,0,0,21.5,15.74Zm5.78,11.37a1,1,0,0,1-.41.09,1,1,0,0,1-.92-.61l-1.2-2.82V37.86h0v0a1.42,1.42,0,0,1-2.84-.1V29.12h-1V37.8a1.42,1.42,0,0,1-1.42,1.41h-.06V27.78a1.89,1.89,0,0,0,2.36.68h0a1.89,1.89,0,0,0,1-1.16,2.17,2.17,0,0,0,.08-.43,2,2,0,0,0,0-.42,1.64,1.64,0,0,0-.1-.38c-.18-.48-.44-1.14-.74-1.91q-.09-.27-.21-.54l0-.08-.06-.15c0-.06-.05-.13-.08-.19l0-.12c-.87-2.25-1.9-4.9-2.21-5.8v0a4.34,4.34,0,0,0-.24-.55h4.48a1.73,1.73,0,0,1,.48.27h0a2.29,2.29,0,0,1,.27.27,1.9,1.9,0,0,1,.21.35,2.38,2.38,0,0,1,.13.31h0c.29.85,1.26,3.34,2.06,5.43l.33.84.09.24.12.31.08.2h0c.13.34.25.65.34.9a.61.61,0,0,1,.05.18.93.93,0,0,1,0,.44,1,1,0,0,1-.56.64h0Zm-12.23-12A3.05,3.05,0,0,0,18,12.88a3.26,3.26,0,0,0,.12-.77v0h0v0a3.06,3.06,0,1,0-3.05,3Zm6.44,12.66a1.09,1.09,0,0,1-.46.1,1.12,1.12,0,0,1-1-.68c-.22-.52-.44-1.05-.67-1.57L18.67,24V39.65c0,.06,0,.11,0,.16a1.58,1.58,0,0,1-3.16-.16V30H14.4v9.67a1.58,1.58,0,0,1-3.16,0V24l-.67,1.57c-.23.52-.45,1-.67,1.57a1.13,1.13,0,0,1-1,.68,1.27,1.27,0,0,1-.46-.1h0a1.11,1.11,0,0,1-.59-1.41l1-2.69c.91-2.34,2-5.17,2.33-6.13h0a2.19,2.19,0,0,1,.68-1,1.79,1.79,0,0,1,.54-.32H17.5a2,2,0,0,1,.54.31h0a2.29,2.29,0,0,1,.27.27,2.64,2.64,0,0,1,.22.32,2.23,2.23,0,0,1,.18.44h0c.32.95,1.39,3.72,2.29,6,.08.2.16.4.23.6l.09.21.12.33c.07.16.13.32.19.47l0,.07.18.47.24.63a1.21,1.21,0,0,1,.05.14,1.19,1.19,0,0,1,0,.42,1.23,1.23,0,0,1-.12.37,1.06,1.06,0,0,1-.52.48Z" class="fl-mapviz-fill-black"/></svg>
