<svg width="49" height="49" viewBox="0 0 49 49" fill="none" xmlns="http://www.w3.org/2000/svg">
<path fill-rule="evenodd" clip-rule="evenodd" d="M24.4775 48.955C37.996 48.955 48.955 37.996 48.955 24.4775C48.955 10.9589 37.996 0 24.4775 0C10.9589 0 0 10.9589 0 24.4775C0 37.996 10.9589 48.955 24.4775 48.955ZM36.1287 13.006C36.1287 14.4964 34.9839 15.7041 33.5715 15.7041C32.1598 15.7041 31.0163 14.4964 31.0163 13.006C31.0163 11.5142 32.1598 10.3065 33.5715 10.3065C34.9839 10.3065 36.1287 11.5142 36.1287 13.006ZM40.4201 25.3478L36.7747 16.9145C36.5781 16.4556 36.1316 16.2567 35.6794 16.2567C34.9108 16.2567 34.2997 16.2565 33.6743 16.2564C33.0189 16.2562 32.3478 16.256 31.4631 16.256C31.0109 16.256 30.565 16.4543 30.3672 16.9138L26.7229 25.3471C26.4718 25.9272 26.7134 26.6125 27.2627 26.8771C27.4098 26.9474 27.5646 26.9815 27.7155 26.9815C28.1309 26.9815 28.5279 26.7304 28.7106 26.3057L30.4731 22.227V26.6205C30.4731 26.6241 30.4722 26.6275 30.4712 26.631L30.4712 26.6311L30.4712 26.6311C30.4703 26.6348 30.4693 26.6385 30.4693 26.6426V36.5998C30.4693 37.3655 31.0566 37.9851 31.7808 37.9851C32.5051 37.9851 33.0924 37.3648 33.0924 36.5998V28.3453H34.0501V36.6005C34.0501 37.3661 34.6373 37.9857 35.3616 37.9857C36.0859 37.9857 36.6732 37.3655 36.6732 36.6005V26.6433C36.6732 26.6372 36.6706 26.6326 36.6706 26.6265V22.2277L38.4331 26.3063C38.6158 26.731 39.0128 26.9822 39.4276 26.9822C39.5792 26.9822 39.7339 26.9481 39.8817 26.8777C40.4297 26.6125 40.6713 25.9279 40.4201 25.3478ZM18.5203 13.006C18.5203 14.4964 17.3768 15.7041 15.965 15.7041C14.5526 15.7041 13.4091 14.4964 13.4091 13.006C13.4091 11.5142 14.5526 10.3065 15.965 10.3065C17.3768 10.3065 18.5203 11.5142 18.5203 13.006ZM19.1697 16.9143C18.9896 16.497 18.6021 16.2565 18.1943 16.2478H13.7345C13.3267 16.2565 12.941 16.497 12.7616 16.9143L9.11735 25.3477C8.8662 25.9277 9.10784 26.613 9.65644 26.8776C9.80421 26.9479 9.95896 26.9821 10.1099 26.9821C10.5247 26.9821 10.9223 26.7309 11.105 26.3062L12.239 23.6818L11.2515 28.5924C11.2179 28.7578 11.2578 28.93 11.358 29.0613C11.4589 29.1926 11.6105 29.2689 11.7703 29.2689H12.8649V36.6004C12.8649 37.366 13.4522 37.9856 14.1765 37.9856C14.9008 37.9856 15.4881 37.3653 15.4881 36.6004V29.2689H16.4457V36.6004C16.4457 37.366 17.033 37.9856 17.7573 37.9856C18.4816 37.9856 19.0689 37.3653 19.0689 36.6004V29.2689H20.1597C20.3195 29.2689 20.4705 29.1926 20.5713 29.0613C20.6722 28.93 20.7115 28.7578 20.6785 28.5924L19.6885 23.6697L20.8275 26.3062C21.0102 26.7309 21.4079 26.9821 21.8226 26.9821C21.9742 26.9821 22.1283 26.9479 22.2761 26.8776C22.8247 26.613 23.067 25.9284 22.8158 25.3477L19.1697 16.9143ZM23.9587 13.2111C23.9587 12.7013 24.35 12.2874 24.8333 12.2874C25.3165 12.2874 25.7079 12.7013 25.7079 13.2117V35.1638C25.7079 35.6743 25.3165 36.0876 24.8333 36.0876C24.35 36.0876 23.9587 35.6736 23.9587 35.1638V13.2111Z" class="fl-mapviz-fill-black"/>
</svg>
